<svg width="25" height="25" viewBox="0 0 25 25" fill="none" xmlns="http://www.w3.org/2000/svg">
<path d="M10.8933 4.18296L2.42329 18.323C2.24866 18.6254 2.15626 18.9683 2.15528 19.3175C2.1543 19.6667 2.24478 20.0101 2.41772 20.3135C2.59065 20.6169 2.84002 20.8697 3.141 21.0468C3.44198 21.2239 3.78409 21.3191 4.13329 21.323H21.0733C21.4225 21.3191 21.7646 21.2239 22.0656 21.0468C22.3666 20.8697 22.6159 20.6169 22.7889 20.3135C22.9618 20.0101 23.0523 19.6667 23.0513 19.3175C23.0503 18.9683 22.9579 18.6254 22.7833 18.323L14.3133 4.18296C14.135 3.88907 13.884 3.64608 13.5845 3.47744C13.285 3.30881 12.947 3.22021 12.6033 3.22021C12.2596 3.22021 11.9216 3.30881 11.6221 3.47744C11.3226 3.64608 11.0716 3.88907 10.8933 4.18296Z" fill="#FFC700" stroke="black" stroke-width="1.75" stroke-linecap="round" stroke-linejoin="round"/>
<path d="M12.6035 9.32275V13.3228" stroke="black" stroke-width="1.75" stroke-linecap="round" stroke-linejoin="round"/>
<path d="M12.6035 17.3228H12.6141" stroke="black" stroke-width="1.75" stroke-linecap="round" stroke-linejoin="round"/>
</svg>
