<svg width="42" height="21" viewBox="0 0 42 21" fill="none" xmlns="http://www.w3.org/2000/svg">
<path fill-rule="evenodd" clip-rule="evenodd" d="M4.1498 9.7799C2.36127 12.5076 1.23226 15.9203 0.955486 19.4356L0.873047 20.4824H3.96694H7.06098L7.14031 19.3005C7.27099 17.3526 8.17539 14.711 9.26359 13.0996C9.48644 12.7696 9.66875 12.4499 9.66875 12.389C9.66875 12.2993 5.57829 9.18585 4.99851 8.83439C4.89094 8.76914 4.59997 9.09332 4.1498 9.7799Z" fill="#00923D"/>
<path fill-rule="evenodd" clip-rule="evenodd" d="M18.521 0.717878C15.2795 1.12391 11.7044 2.54893 9.10121 4.47278C7.823 5.41748 5.85352 7.223 5.91447 7.39441C5.93542 7.4533 6.98388 8.38301 8.24452 9.46049L10.5365 11.4196L11.2853 10.7068C13.5329 8.56725 16.5984 7.11683 19.3677 6.88288L20.3575 6.79928L20.2731 3.88183C20.2266 2.27716 20.1649 0.88834 20.1361 0.79541C20.0852 0.631431 19.453 0.60104 18.521 0.717878Z" fill="#FFCF3D"/>
<path fill-rule="evenodd" clip-rule="evenodd" d="M21.6965 1.80708C21.6965 2.47151 21.6569 3.8402 21.6085 4.84866L21.5205 6.68214L22.1829 6.77007C25.6183 7.22595 28.1452 8.36596 30.3742 10.4657C30.8745 10.9369 31.339 11.3016 31.4064 11.2761C31.6409 11.1874 35.8868 7.50703 35.8868 7.39249C35.8868 7.32901 35.3108 6.72672 34.6068 6.05405C31.4189 3.00802 27.213 1.1174 22.6763 0.691241L21.6965 0.599121V1.80708ZM32.1027 12.3699C32.1027 12.4399 32.1628 12.5342 32.2364 12.5796C32.3129 12.6268 32.3356 12.5727 32.2895 12.4525C32.1996 12.2185 32.1027 12.1757 32.1027 12.3699ZM34.546 18.1297C34.5525 18.2871 34.5845 18.3191 34.6276 18.2114C34.6667 18.1139 34.6618 17.9974 34.617 17.9525C34.5721 17.9077 34.5402 17.9874 34.546 18.1297ZM40.7627 18.3999C40.7692 18.5572 40.8012 18.5892 40.8444 18.4816C40.8834 18.3841 40.8785 18.2675 40.8337 18.2227C40.7888 18.1778 40.7569 18.2575 40.7627 18.3999ZM34.6918 18.9965C34.6918 19.1822 34.7225 19.2583 34.7599 19.1653C34.7975 19.0725 34.7975 18.9206 34.7599 18.8276C34.7225 18.7349 34.6918 18.8108 34.6918 18.9965ZM40.8979 20.1758L40.8872 20.4772L37.8126 20.5162L34.7381 20.5551L37.8168 20.5863C40.4181 20.6125 40.9075 20.5866 40.9718 20.4192C41.0136 20.3102 41.0165 20.1431 40.9781 20.0478C40.9399 19.9524 40.9037 20.0101 40.8979 20.1758Z" fill="#FF5A1A"/>
<path fill-rule="evenodd" clip-rule="evenodd" d="M34.6902 10.4917C33.4034 11.4425 32.3186 12.2524 32.2795 12.2915C32.2404 12.3304 32.4305 12.7275 32.7018 13.1739C33.4745 14.4452 34.0992 15.8947 34.4197 17.1596L34.714 18.3214L35.8072 18.3402L36.9003 18.3591L35.8191 18.4851L34.7379 18.6113L34.7828 19.5469L34.8277 20.4826H37.8574H40.8871L40.8863 19.7059C40.8853 18.7222 40.5721 16.6634 40.2237 15.3498C39.7055 13.3972 38.4063 10.6159 37.3444 9.18612L37.03 8.76294L34.6902 10.4917Z" fill="#E12229"/>
<path fill-rule="evenodd" clip-rule="evenodd" d="M34.6708 18.4601C34.6708 18.5504 34.9903 18.5675 35.583 18.5092C36.7996 18.3895 36.82 18.3213 35.6394 18.3213C35.0662 18.3213 34.6708 18.378 34.6708 18.4601ZM21.0807 18.6546C20.8912 18.7978 20.4387 18.8542 19.452 18.8573C18.7005 18.8597 17.8009 18.9006 17.4529 18.9483L16.8203 19.0349L17.3664 19.2794C17.6669 19.4138 17.9123 19.5723 17.9116 19.6316C17.9111 19.6909 17.6625 19.8811 17.3593 20.0543C17.0561 20.2273 16.84 20.401 16.8792 20.4402C16.9184 20.4794 17.8399 20.4102 18.9268 20.2866C20.4713 20.111 21.0054 20.0957 21.3712 20.2164C21.7695 20.3478 21.9157 20.331 22.3503 20.1047C22.7573 19.8926 24.0489 19.7051 28.6903 19.1843C31.8964 18.8246 34.4958 18.5066 34.467 18.4778C34.4382 18.4489 31.7635 18.5028 28.5233 18.5975C24.0541 18.7281 22.5942 18.7319 22.4752 18.613C22.2544 18.3923 21.3937 18.4181 21.0807 18.6546ZM22.2605 18.9501C22.7279 19.3728 22.482 19.9422 21.8319 19.9422C21.407 19.9422 21.1562 19.7166 21.1562 19.3343C21.1562 18.7489 21.7931 18.5273 22.2605 18.9501Z" fill="#010101"/>
</svg>
