<svg width="41" height="22" viewBox="0 0 41 22" fill="none" xmlns="http://www.w3.org/2000/svg">
<path fill-rule="evenodd" clip-rule="evenodd" d="M3.61366 9.7799C1.82514 12.5076 0.696132 15.9203 0.419353 19.4356L0.336914 20.4824H3.43081H6.52484L6.60417 19.3005C6.73486 17.3526 7.63926 14.711 8.72745 13.0996C8.95031 12.7696 9.13262 12.4499 9.13262 12.389C9.13262 12.2993 5.04216 9.18585 4.46238 8.83439C4.3548 8.76914 4.06383 9.09332 3.61366 9.7799Z" fill="#00923D"/>
<path fill-rule="evenodd" clip-rule="evenodd" d="M17.9849 0.717878C14.7434 1.12391 11.1683 2.54893 8.56508 4.47278C7.28686 5.41748 5.31738 7.223 5.37833 7.39441C5.39928 7.4533 6.44775 8.38301 7.70839 9.46049L10.0003 11.4196L10.7492 10.7068C12.9968 8.56725 16.0623 7.11683 18.8316 6.88288L19.8214 6.79928L19.7369 3.88183C19.6904 2.27716 19.6288 0.88834 19.6 0.79541C19.5491 0.631431 18.9169 0.60104 17.9849 0.717878Z" fill="#FFCF3D"/>
<path fill-rule="evenodd" clip-rule="evenodd" d="M21.1603 1.80708C21.1603 2.47151 21.1207 3.8402 21.0724 4.84866L20.9844 6.68214L21.6467 6.77007C25.0821 7.22595 27.6091 8.36596 29.8381 10.4657C30.3384 10.9369 30.8029 11.3016 30.8703 11.2761C31.1048 11.1874 35.3507 7.50703 35.3507 7.39249C35.3507 7.32901 34.7747 6.72672 34.0707 6.05405C30.8827 3.00802 26.6769 1.1174 22.1401 0.691241L21.1603 0.599121V1.80708Z" fill="#FF5A1A"/>
<path fill-rule="evenodd" clip-rule="evenodd" d="M34.1541 10.4917C32.8672 11.4425 31.7824 12.2524 31.7434 12.2915C31.7043 12.3304 31.8943 12.7275 32.1657 13.1739C32.9383 14.4452 33.5631 15.8947 33.8835 17.1596L34.1779 18.3214L34.2018 18.4008V18.4851V18.5644V18.6113L34.2467 19.5469L34.2916 20.4826H37.3213H40.351L40.3501 19.7059C40.3492 18.7222 40.0359 16.6634 39.6875 15.3498C39.1694 13.3972 37.8702 10.6159 36.8082 9.18612L36.4939 8.76294L34.1541 10.4917Z" fill="#E12229"/>
<path fill-rule="evenodd" clip-rule="evenodd" d="M7.03823 17.3049C7.06016 17.2174 6.75443 17.1231 6.16528 17.0356C4.9561 16.8559 4.91973 16.9171 6.06494 17.2041C6.62089 17.3435 7.01826 17.3846 7.03823 17.3049ZM20.2679 20.4204C20.4865 20.3276 20.9391 20.3829 21.8969 20.6198C22.6265 20.8002 23.509 20.9792 23.8581 21.0175L24.4928 21.0874L24.0225 20.7174C23.7638 20.514 23.5643 20.3005 23.5794 20.2432C23.5943 20.1858 23.8816 20.0618 24.2179 19.9675C24.554 19.8734 24.8058 19.7574 24.7773 19.7099C24.7488 19.6624 23.8383 19.5054 22.7538 19.361C21.213 19.1559 20.6913 19.0408 20.3657 18.8349C20.0114 18.6106 19.8654 18.5913 19.3888 18.7052C18.9425 18.8119 17.6441 18.6798 13.0153 18.0565C9.81799 17.626 7.21928 17.3024 7.24021 17.3373C7.2611 17.3723 9.86863 17.9704 13.0347 18.6663C17.4015 19.6262 18.8186 19.9775 18.905 20.1217C19.0656 20.3895 19.9068 20.5737 20.2679 20.4204ZM19.1953 19.847C18.8446 19.3232 19.2216 18.8308 19.8522 18.9888C20.2643 19.0921 20.4528 19.3719 20.3598 19.7427C20.2175 20.3106 19.5458 20.3707 19.1953 19.847Z" fill="#010101"/>
</svg>
