<svg width="30" height="33" viewBox="0 0 30 33" fill="none" xmlns="http://www.w3.org/2000/svg">
<path fill-rule="evenodd" clip-rule="evenodd" d="M4.5255 0.527467C3.91319 0.81113 3.53118 1.22121 3.33706 1.80293C3.23588 2.10584 3.19246 4.33768 3.19246 9.22583V16.2156H1.60551H0.0185547V19.3377V22.4597H14.809H29.5994V19.3377V16.2156H28.0124H26.4255V9.16313V2.11081L26.1351 1.54909C25.9123 1.11824 25.6853 0.905939 25.1601 0.637058L24.4755 0.286621L14.7545 0.289425C5.5748 0.292101 5.00502 0.305354 4.5255 0.527467ZM7.38202 1.4386C7.38202 1.84231 6.92726 2.64041 6.48368 3.01506C5.90996 3.49956 5.43794 3.72014 4.78157 3.81049L4.20811 3.88937V3.00831C4.20811 1.58388 4.6781 1.19241 6.39811 1.18361C7.30546 1.17903 7.38202 1.19891 7.38202 1.4386ZM21.426 1.91392C21.6538 2.80722 21.8996 3.26101 22.525 3.942C23.1684 4.64249 23.87 5.0648 24.7781 5.29813L25.4733 5.47666V13.4903V21.504L23.4737 21.5391C22.363 21.5585 21.4742 21.5238 21.4742 21.4607C21.4742 21.3982 21.5808 21.2105 21.7112 21.0433C22.0391 20.6227 22.6607 19.3495 22.9483 18.5094C23.1392 17.9515 23.1864 17.4577 23.1802 16.0882C23.1731 14.5301 23.1392 14.2796 22.821 13.4325C21.964 11.1504 20.6277 9.61539 18.6176 8.60371C17.3156 7.94833 16.483 7.75833 14.8724 7.74941C13.5883 7.7424 13.276 7.78623 12.2786 8.11437C9.55487 9.01034 7.40982 11.283 6.67665 14.0492C6.40852 15.0605 6.37614 17.0276 6.61139 17.9996C6.82227 18.8704 7.37478 20.1206 7.88273 20.876C8.15874 21.2866 8.22183 21.4672 8.10491 21.5122C8.01515 21.5467 7.11592 21.5591 6.10662 21.5396L4.27159 21.504V13.2245V4.94489L4.82055 4.85084C5.55931 4.7243 6.59705 4.2342 7.14067 3.75506C7.66437 3.2935 8.21307 2.33126 8.33787 1.65537L8.42636 1.17635L14.8406 1.20935L21.2548 1.24236L21.426 1.91392ZM24.5946 1.43835C25.2754 1.76916 25.4733 2.22728 25.4733 3.47241C25.4733 4.41758 25.4697 4.42764 25.1577 4.38317C24.5716 4.2997 23.6677 3.74295 23.1387 3.13956C22.6601 2.59377 22.186 1.51022 22.3225 1.27422C22.4458 1.06128 24.0582 1.17775 24.5946 1.43835ZM17.3134 9.10859C19.6711 9.99017 21.4344 11.9064 22.0419 14.247C22.2626 15.0976 22.2932 17.0189 22.0996 17.8722C21.9005 18.7494 21.036 20.4215 20.4688 21.0261L19.9608 21.5677H14.8239H9.68704L9.16512 20.9624C8.11379 19.743 7.38938 17.7557 7.38418 16.0767C7.38138 15.1424 7.77152 13.6401 8.27973 12.6292C9.08844 11.0206 11.1032 9.41927 12.9838 8.89056C14.0477 8.59135 16.2233 8.70094 17.3134 9.10859ZM11.6217 13.5278C10.9452 13.8362 10.5929 14.2155 10.228 15.0288C9.95631 15.6342 9.89194 15.6932 9.46309 15.7297C8.53288 15.8088 8.59902 16.5979 9.5357 16.5979C9.97688 16.5979 10.0179 16.6314 10.1607 17.1098C10.4861 18.1998 11.5886 19.0109 12.7523 19.0163C13.7912 19.021 14.4315 18.5012 14.9858 17.2031L15.2443 16.5979H16.8917C17.7979 16.5979 18.5702 16.6482 18.608 16.7096C18.7663 16.9668 18.0971 17.6825 17.5343 17.8577C16.4111 18.2075 16.3764 18.2309 16.4193 18.606C16.4542 18.9095 16.5224 18.9606 16.9387 18.9951C17.9879 19.0822 19.2075 18.1929 19.5617 17.0828C19.7 16.6494 19.7544 16.6087 20.244 16.573C20.7418 16.5367 20.7759 16.5097 20.7759 16.1519C20.7759 15.794 20.7418 15.767 20.244 15.7307C19.7544 15.695 19.7 15.6544 19.5617 15.221C19.177 14.0155 17.9741 13.2063 16.7216 13.3105C15.8148 13.386 15.365 13.7401 14.8512 14.7831L14.4281 15.6421L12.7459 15.6777C10.9386 15.7159 10.9023 15.701 11.2715 15.0738C11.536 14.6242 12.0744 14.3041 12.566 14.3041C12.9591 14.3041 13.349 14.0267 13.349 13.7471C13.349 13.2486 12.4769 13.138 11.6217 13.5278ZM17.8814 14.5539C18.2921 14.8052 18.7381 15.4787 18.5914 15.626C18.5477 15.6699 17.8582 15.7059 17.0593 15.7059H15.6066L15.693 15.3554C15.7404 15.1626 15.9287 14.8474 16.1113 14.6546C16.5207 14.2226 17.2705 14.1799 17.8814 14.5539ZM14.1107 16.6657C14.1107 16.8813 13.7255 17.5888 13.497 17.7932C13.2828 17.9846 13.0961 18.0199 12.5669 17.9689C12.0087 17.915 11.8387 17.8327 11.4842 17.4444C10.7681 16.6601 10.8491 16.5979 12.5872 16.5979C13.4251 16.5979 14.1107 16.6283 14.1107 16.6657ZM3.19246 19.4065V21.578L2.14507 21.541L1.09768 21.504L1.0629 19.3695L1.02811 17.235H2.11029H3.19246V19.4065ZM28.682 19.3695L28.6472 21.504H27.5681H26.4889L26.4542 19.3695L26.4194 17.235H27.5681H28.7168L28.682 19.3695ZM11.898 23.8068C11.7411 23.9645 11.6985 24.3037 11.6985 25.3997V26.7924H10.8352C9.95263 26.7924 9.66723 26.9193 9.66723 27.3118C9.66723 27.5834 14.0854 32.0171 14.356 32.0171C14.6154 32.0171 19.062 27.5547 19.062 27.2945C19.062 26.9211 18.7653 26.7924 17.9049 26.7924H17.0525L17.0099 25.3221C16.977 24.1878 16.9237 23.8242 16.7768 23.7311C16.672 23.6649 15.5764 23.6097 14.3419 23.6085C12.469 23.607 12.0645 23.6398 11.898 23.8068ZM16.015 26.076C16.015 27.6888 16.0515 27.7686 16.8182 27.8342L17.3006 27.8756L15.8762 29.3092C15.0927 30.0977 14.4038 30.7428 14.3453 30.7428C14.2868 30.7428 13.5959 30.0977 12.81 29.3092L11.3811 27.8756L11.8873 27.8342C12.68 27.7694 12.7142 27.6968 12.7142 26.076V24.6261H14.3646H16.015V26.076Z" fill="#63A748"/>
</svg>
