<svg width="30" height="33" viewBox="0 0 30 33" fill="none" xmlns="http://www.w3.org/2000/svg">
<path fill-rule="evenodd" clip-rule="evenodd" d="M4.75695 0.889528C4.14464 1.17319 3.76263 1.58327 3.56851 2.16499C3.46733 2.4679 3.42391 4.69974 3.42391 9.58789V16.5777H1.83695H0.25V19.6997V22.8218H15.0404H29.8308V19.6997V16.5777H28.2439H26.6569V9.5252V2.47287L26.3666 1.91115C26.1437 1.4803 25.9167 1.268 25.3915 0.999119L24.707 0.648682L14.9859 0.651485C5.80624 0.654161 5.23646 0.667414 4.75695 0.889528ZM7.61346 1.80066C7.61346 2.20437 7.15871 3.00247 6.71512 3.37712C6.14141 3.86162 5.66938 4.0822 5.01302 4.17255L4.43956 4.25143V3.37037C4.43956 1.94594 4.90955 1.55447 6.62955 1.54567C7.53691 1.54109 7.61346 1.56097 7.61346 1.80066ZM21.6575 2.27599C21.8853 3.16928 22.131 3.62307 22.7564 4.30406C23.3998 5.00455 24.1014 5.42686 25.0095 5.66019L25.7047 5.83872V13.8524V21.8661L23.7052 21.9011C22.5944 21.9206 21.7056 21.8858 21.7056 21.8227C21.7056 21.7603 21.8123 21.5726 21.9426 21.4054C22.2706 20.9847 22.8921 19.7116 23.1797 18.8714C23.3706 18.3135 23.4179 17.8197 23.4116 16.4502C23.4045 14.8921 23.3706 14.6417 23.0525 13.7945C22.1954 11.5125 20.8592 9.97745 18.8491 8.96577C17.547 8.31039 16.7145 8.12039 15.1039 8.11147C13.8197 8.10446 13.5074 8.1483 12.51 8.47643C9.78632 9.37241 7.64127 11.645 6.90809 14.4113C6.63996 15.4226 6.60759 17.3896 6.84284 18.3617C7.05371 19.2324 7.60623 20.4827 8.11418 21.2381C8.39018 21.6487 8.45328 21.8292 8.33635 21.8742C8.24659 21.9088 7.34736 21.9211 6.33806 21.9016L4.50304 21.8661V13.5866V5.30695L5.05199 5.2129C5.79075 5.08637 6.82849 4.59626 7.37212 4.11712C7.89581 3.65556 8.44452 2.69332 8.56932 2.01743L8.65781 1.53841L15.072 1.57141L21.4862 1.60442L21.6575 2.27599ZM24.8261 1.80041C25.5068 2.13122 25.7047 2.58934 25.7047 3.83448C25.7047 4.77964 25.7012 4.7897 25.3891 4.74523C24.8031 4.66176 23.8992 4.10501 23.3701 3.50162C22.8915 2.95583 22.4175 1.87228 22.5539 1.63628C22.6772 1.42334 24.2897 1.53981 24.8261 1.80041ZM17.5449 9.47065C19.9026 10.3522 21.6659 12.2684 22.2734 14.6091C22.494 15.4597 22.5246 17.381 22.331 18.2343C22.1319 19.1115 21.2675 20.7835 20.7002 21.3882L20.1923 21.9298H15.0554H9.91848L9.39656 21.3245C8.34524 20.1051 7.62083 18.1178 7.61562 16.4388C7.61283 15.5044 8.00297 14.0021 8.51117 12.9912C9.31988 11.3826 11.3347 9.78133 13.2153 9.25262C14.2792 8.95341 16.4547 9.063 17.5449 9.47065ZM11.8532 13.8899C11.1766 14.1982 10.8243 14.5776 10.4594 15.3909C10.1878 15.9963 10.1234 16.0553 9.69453 16.0918C8.76432 16.1709 8.83047 16.9599 9.76715 16.9599C10.2083 16.9599 10.2493 16.9935 10.3922 17.4718C10.7175 18.5619 11.82 19.373 12.9837 19.3783C14.0226 19.3831 14.663 18.8633 15.2173 17.5651L15.4757 16.9599H17.1231C18.0293 16.9599 18.8016 17.0103 18.8394 17.0717C18.9978 17.3289 18.3286 18.0445 17.7658 18.2197C16.6426 18.5695 16.6078 18.593 16.6507 18.968C16.6856 19.2716 16.7538 19.3227 17.1701 19.3572C18.2194 19.4442 19.4389 18.555 19.7931 17.4448C19.9314 17.0114 19.9859 16.9708 20.4754 16.9351C20.9732 16.8988 21.0074 16.8718 21.0074 16.5139C21.0074 16.1561 20.9732 16.1291 20.4754 16.0928C19.9859 16.0571 19.9314 16.0164 19.7931 15.583C19.4085 14.3775 18.2056 13.5683 16.953 13.6726C16.0463 13.748 15.5965 14.1022 15.0827 15.1452L14.6595 16.0042L12.9774 16.0398C11.17 16.078 11.1337 16.0631 11.5029 15.4359C11.7675 14.9863 12.3059 14.6662 12.7975 14.6662C13.1905 14.6662 13.5804 14.3888 13.5804 14.1092C13.5804 13.6107 12.7083 13.5 11.8532 13.8899ZM18.1129 14.9159C18.5236 15.1672 18.9696 15.8407 18.8228 15.988C18.7791 16.032 18.0896 16.0679 17.2907 16.0679H15.8381L15.9244 15.7175C15.9719 15.5247 16.1602 15.2094 16.3427 15.0166C16.7522 14.5846 17.502 14.5419 18.1129 14.9159ZM14.3421 17.0277C14.3421 17.2434 13.957 17.9509 13.7284 18.1553C13.5143 18.3467 13.3275 18.382 12.7984 18.331C12.2401 18.2771 12.0701 18.1948 11.7157 17.8065C10.9995 17.0221 11.0805 16.9599 12.8187 16.9599C13.6566 16.9599 14.3421 16.9904 14.3421 17.0277ZM3.42391 19.7685V21.9401L2.37652 21.903L1.32913 21.8661L1.29434 19.7316L1.25956 17.5971H2.34173H3.42391V19.7685ZM28.9134 19.7316L28.8786 21.8661H27.7995H26.7204L26.6856 19.7316L26.6508 17.5971H27.7995H28.9482L28.9134 19.7316ZM12.1294 24.1689C11.9725 24.3265 11.93 24.6657 11.93 25.7618V27.1545H11.0667C10.1841 27.1545 9.89868 27.2814 9.89868 27.6739C9.89868 27.9455 14.3169 32.3792 14.5874 32.3792C14.8468 32.3792 19.2934 27.9168 19.2934 27.6566C19.2934 27.2832 18.9967 27.1545 18.1364 27.1545H17.284L17.2413 25.6842C17.2084 24.5499 17.1551 24.1862 17.0082 24.0932C16.9035 24.0269 15.8079 23.9718 14.5733 23.9706C12.7005 23.9691 12.296 24.0018 12.1294 24.1689ZM16.2465 26.4381C16.2465 28.0508 16.2829 28.1306 17.0496 28.1962L17.532 28.2377L16.1076 29.6713C15.3242 30.4598 14.6353 31.1049 14.5768 31.1049C14.5182 31.1049 13.8273 30.4598 13.0415 29.6713L11.6126 28.2377L12.1188 28.1962C12.9115 28.1315 12.9456 28.0589 12.9456 26.4381V24.9881H14.5961H16.2465V26.4381Z" fill="#914DE5"/>
</svg>
