<svg width="31" height="32" viewBox="0 0 31 32" fill="none" xmlns="http://www.w3.org/2000/svg">
<path fill-rule="evenodd" clip-rule="evenodd" d="M5.2589 0.331666C4.64659 0.615329 4.26458 1.0254 4.07046 1.60713C3.96928 1.91004 3.92586 4.14188 3.92586 9.03003V16.0198H2.33891H0.751953V19.1419V22.2639H15.5424H30.3328V19.1419V16.0198H28.7458H27.1589V8.96733V1.91501L26.8685 1.35329C26.6457 0.92244 26.4187 0.710139 25.8935 0.441258L25.2089 0.0908203L15.4879 0.0936239C6.30819 0.0962999 5.73841 0.109553 5.2589 0.331666ZM8.11542 1.2428C8.11542 1.64651 7.66066 2.44461 7.21707 2.81926C6.64336 3.30376 6.17134 3.52434 5.51497 3.61469L4.94151 3.69357V2.81251C4.94151 1.38808 5.4115 0.996605 7.13151 0.987812C8.03886 0.983225 8.11542 1.0031 8.11542 1.2428ZM22.1594 1.71812C22.3872 2.61142 22.633 3.06521 23.2584 3.7462C23.9018 4.44669 24.6034 4.869 25.5115 5.10233L26.2067 5.28086V13.2945V21.3082L24.2071 21.3433C23.0964 21.3627 22.2076 21.328 22.2076 21.2649C22.2076 21.2024 22.3142 21.0147 22.4446 20.8475C22.7725 20.4269 23.3941 19.1537 23.6817 18.3136C23.8726 17.7557 23.9198 17.2619 23.9136 15.8924C23.9065 14.3342 23.8726 14.0838 23.5544 13.2367C22.6974 10.9546 21.3611 9.41959 19.351 8.40791C18.049 7.75253 17.2164 7.56253 15.6058 7.55361C14.3217 7.5466 14.0094 7.59043 13.012 7.91857C10.2883 8.81454 8.14322 11.0872 7.41005 13.8534C7.14192 14.8647 7.10954 16.8318 7.34479 17.8038C7.55567 18.6746 8.10818 19.9248 8.61613 20.6802C8.89214 21.0908 8.95523 21.2714 8.83831 21.3164C8.74855 21.3509 7.84932 21.3633 6.84001 21.3438L5.00499 21.3082V13.0287V4.74909L5.55395 4.65504C6.29271 4.5285 7.33045 4.0384 7.87407 3.55926C8.39777 3.0977 8.94647 2.13546 9.07127 1.45956L9.15976 0.980549L15.574 1.01355L21.9882 1.04656L22.1594 1.71812ZM25.328 1.24255C26.0088 1.57336 26.2067 2.03148 26.2067 3.27661C26.2067 4.22178 26.2031 4.23184 25.8911 4.18737C25.305 4.1039 24.4011 3.54715 23.8721 2.94376C23.3935 2.39797 22.9194 1.31442 23.0559 1.07842C23.1792 0.865478 24.7916 0.981951 25.328 1.24255ZM18.0468 8.91279C20.4045 9.79436 22.1678 11.7106 22.7753 14.0512C22.996 14.9018 23.0266 16.8231 22.8329 17.6764C22.6339 18.5536 21.7694 20.2257 21.2022 20.8303L20.6942 21.3719H15.5573H10.4204L9.89852 20.7666C8.84719 19.5472 8.12278 17.5599 8.11757 15.8809C8.11478 14.9466 8.50492 13.4443 9.01312 12.4334C9.82184 10.8248 11.8366 9.22347 13.7172 8.69476C14.7811 8.39555 16.9567 8.50514 18.0468 8.91279ZM12.3551 13.332C11.6786 13.6404 11.3263 14.0197 10.9614 14.833C10.6897 15.4384 10.6253 15.4974 10.1965 15.5339C9.26628 15.613 9.33242 16.4021 10.2691 16.4021C10.7103 16.4021 10.7513 16.4356 10.8941 16.914C11.2195 18.004 12.322 18.8151 13.4857 18.8205C14.5246 18.8252 15.1649 18.3054 15.7192 17.0073L15.9777 16.4021H17.6251C18.5313 16.4021 19.3036 16.4524 19.3414 16.5138C19.4997 16.771 18.8305 17.4867 18.2677 17.6619C17.1445 18.0117 17.1098 18.0351 17.1527 18.4102C17.1876 18.7137 17.2558 18.7648 17.672 18.7993C18.7213 18.8864 19.9409 17.9971 20.2951 16.887C20.4333 16.4536 20.4878 16.4129 20.9774 16.3772C21.4752 16.3409 21.5093 16.3139 21.5093 15.9561C21.5093 15.5982 21.4752 15.5712 20.9774 15.5349C20.4878 15.4992 20.4333 15.4586 20.2951 15.0252C19.9104 13.8197 18.7075 13.0105 17.455 13.1147C16.5482 13.1902 16.0984 13.5443 15.5846 14.5873L15.1615 15.4463L13.4793 15.4819C11.672 15.5201 11.6357 15.5052 12.0048 14.878C12.2694 14.4284 12.8078 14.1083 13.2994 14.1083C13.6925 14.1083 14.0824 13.8309 14.0824 13.5513C14.0824 13.0528 13.2103 12.9422 12.3551 13.332ZM18.6148 14.3581C19.0255 14.6094 19.4715 15.2829 19.3248 15.4302C19.2811 15.4741 18.5916 15.5101 17.7927 15.5101H16.34L16.4264 15.1596C16.4738 14.9668 16.6621 14.6516 16.8447 14.4587C17.2541 14.0268 18.0039 13.9841 18.6148 14.3581ZM14.8441 16.4699C14.8441 16.6855 14.4589 17.393 14.2304 17.5974C14.0162 17.7888 13.8295 17.8241 13.3003 17.7731C12.7421 17.7192 12.5721 17.6369 12.2176 17.2486C11.5015 16.4643 11.5825 16.4021 13.3206 16.4021C14.1585 16.4021 14.8441 16.4325 14.8441 16.4699ZM3.92586 19.2107V21.3822L2.87847 21.3452L1.83108 21.3082L1.7963 19.1737L1.76151 17.0392H2.84368H3.92586V19.2107ZM29.4154 19.1737L29.3806 21.3082H28.3015H27.2223L27.1875 19.1737L27.1528 17.0392H28.3015H29.4502L29.4154 19.1737ZM12.6314 23.611C12.4745 23.7687 12.4319 24.1079 12.4319 25.2039V26.5966H11.5686C10.686 26.5966 10.4006 26.7235 10.4006 27.116C10.4006 27.3876 14.8188 31.8213 15.0894 31.8213C15.3488 31.8213 19.7954 27.3589 19.7954 27.0987C19.7954 26.7253 19.4987 26.5966 18.6383 26.5966H17.7859L17.7433 25.1263C17.7104 23.992 17.6571 23.6284 17.5102 23.5353C17.4054 23.4691 16.3098 23.4139 15.0753 23.4127C13.2024 23.4112 12.7979 23.444 12.6314 23.611ZM16.7484 25.8802C16.7484 27.493 16.7849 27.5728 17.5516 27.6384L18.034 27.6798L16.6096 29.1134C15.8261 29.9019 15.1372 30.547 15.0787 30.547C15.0202 30.547 14.3293 29.9019 13.5434 29.1134L12.1145 27.6798L12.6207 27.6384C13.4134 27.5736 13.4476 27.501 13.4476 25.8802V24.4303H15.098H16.7484V25.8802Z" fill="#FF8759"/>
</svg>
