<svg width="29" height="29" viewBox="0 0 29 29" fill="none" xmlns="http://www.w3.org/2000/svg">
<mask id="path-1-outside-1_2959_80" maskUnits="userSpaceOnUse" x="-0.560059" y="-0.384277" width="30" height="30" fill="black">
<rect fill="white" x="-0.560059" y="-0.384277" width="30" height="30"/>
<path fill-rule="evenodd" clip-rule="evenodd" d="M13.0624 0.667895C8.24723 1.12588 3.98154 4.07131 1.86883 8.39693C1.38498 9.38756 1.13018 10.0667 0.881135 11.0292C0.183781 13.7242 0.317133 16.6826 1.25261 19.2727C1.56431 20.1358 2.20053 21.4003 2.70166 22.1528C3.28913 23.035 3.75869 23.6098 4.50283 24.3576C6.70488 26.5705 9.48131 27.9442 12.5625 28.3456C13.398 28.4544 15.3043 28.4568 16.1134 28.3502C17.8159 28.1256 19.1855 27.7019 20.6973 26.9322C24.8368 24.8245 27.6648 20.7412 28.1988 16.1009C28.2968 15.2491 28.2382 13.0279 28.0975 12.2628C27.6618 9.89293 26.8746 8.06964 25.4319 6.08881C25.3608 5.99127 25.3749 5.98643 25.7307 5.98611C26.2536 5.98573 26.4941 5.90824 26.6258 5.69783C26.7738 5.46139 26.7303 5.19083 26.5128 4.99472L26.347 4.84528H25.183C24.5429 4.84528 23.9564 4.86914 23.8798 4.89826C23.8031 4.92739 23.6916 5.03134 23.6319 5.12921C23.533 5.29147 23.5234 5.40363 23.5232 6.39948C23.5231 7.03874 23.5472 7.56123 23.5814 7.65931C23.7247 8.07034 24.3566 8.138 24.5668 7.76484C24.6043 7.69827 24.6476 7.4851 24.6631 7.2911L24.6913 6.93837L25.0433 7.48129C27.541 11.334 27.8463 16.0614 25.8609 20.1422C25.2114 21.4774 24.3753 22.6277 23.2709 23.7057C20.766 26.1507 17.4002 27.4547 13.9319 27.3241C12.0213 27.2522 10.4097 26.8464 8.71516 26.0108C4.82235 24.0911 2.21846 20.4484 1.65332 16.1318C1.55708 15.3966 1.543 13.8606 1.62593 13.1322C2.19167 8.16044 5.57579 3.98197 10.3197 2.39772C11.8895 1.87344 13.0117 1.7189 14.9164 1.7646L16.2269 1.79606L16.3626 1.64967C16.4372 1.56919 16.5126 1.44448 16.53 1.37248C16.5716 1.20087 16.4463 0.908353 16.2862 0.803475C16.0253 0.632574 14.2286 0.556986 13.0624 0.667895ZM17.829 1.23494C17.3786 1.55044 17.5642 2.23693 18.0999 2.23693C18.373 2.23693 18.501 2.16656 18.6094 1.95702C18.8576 1.47714 18.2654 0.92922 17.829 1.23494ZM13.5515 4.17602C12.6751 4.2521 11.6065 4.49011 10.7529 4.79931C10.1344 5.02335 8.93089 5.64322 8.73602 5.83808C8.51578 6.05833 8.51671 6.36687 8.73814 6.58837C8.97469 6.82491 9.2108 6.8047 9.7397 6.50262C12.4466 4.95641 15.7084 4.84919 18.4421 6.21657C22.2678 8.13012 24.2821 12.2828 23.413 16.4641C22.9816 18.5394 21.7538 20.51 20.0724 21.8255C18.8831 22.7561 17.4721 23.3866 15.974 23.657C15.0575 23.8225 13.6307 23.8216 12.7364 23.655C9.12059 22.9815 6.27928 20.3426 5.40337 16.8443C4.82029 14.5157 5.07651 12.3727 6.20272 10.1588L6.63831 9.30252L6.56169 9.09809C6.45535 8.81432 6.16272 8.6676 5.88548 8.75911C5.66159 8.83302 5.48417 9.08206 5.07585 9.89559C3.06275 13.9065 3.85656 18.7249 7.05494 21.9087C8.47954 23.3269 10.2717 24.2851 12.2998 24.7128C13.1995 24.9026 14.833 24.9531 15.7523 24.8195C17.0232 24.6348 18.0017 24.324 19.1214 23.7492C21.7664 22.3915 23.6955 19.9606 24.4206 17.0719C24.6679 16.0867 24.7346 15.41 24.702 14.219C24.6695 13.0312 24.5526 12.3102 24.2343 11.3331C22.9511 7.39484 19.4829 4.61634 15.3254 4.1958C14.795 4.14211 14.0387 4.13369 13.5515 4.17602ZM14.0007 6.41665C13.8272 6.57152 13.8228 6.58663 13.807 7.08232C13.7934 7.51085 13.8075 7.616 13.8979 7.76049C14.0453 7.99601 14.32 8.08366 14.5757 7.97682C14.8698 7.85391 14.9511 7.64323 14.9287 7.06151C14.9106 6.59087 14.9043 6.57005 14.7325 6.41665C14.4927 6.20244 14.2405 6.20244 14.0007 6.41665ZM7.15357 7.10395C6.99625 7.18932 6.84024 7.43673 6.84062 7.60035C6.841 7.78239 7.04402 8.03839 7.2391 8.10279C7.84804 8.30374 8.23832 7.45749 7.69067 7.12357C7.48755 6.99972 7.35463 6.99489 7.15357 7.10395ZM19.1757 9.03516C19.101 9.06434 18.1918 9.93515 17.1554 10.9703L15.2708 12.8523L14.9891 12.7614C14.6295 12.6452 14.1042 12.645 13.7453 12.7609L13.4648 12.8516L12.4723 11.8643C11.6078 11.0044 11.4578 10.8771 11.3092 10.8771C10.9386 10.8771 10.6986 11.1151 10.6986 11.4824C10.6986 11.6379 10.8133 11.7737 11.6852 12.6502L12.6718 13.642L12.5751 13.9493C12.4391 14.3819 12.479 14.992 12.6675 15.3602C12.8498 15.7163 13.2065 16.0631 13.5783 16.2457C13.8392 16.3739 13.9401 16.3921 14.3666 16.3885C14.9537 16.3835 15.2421 16.2739 15.6345 15.9068C16.1632 15.4123 16.3722 14.6223 16.1484 13.9646L16.0433 13.6558L17.8848 11.8181C18.8976 10.8074 19.7614 9.91445 19.8042 9.83375C19.973 9.51602 19.8561 9.18987 19.5236 9.05092C19.4239 9.00924 19.3353 8.97675 19.3269 8.97859C19.3185 8.9805 19.2505 9.00593 19.1757 9.03516ZM14.629 13.8313C14.7265 13.872 14.8751 13.987 14.959 14.0868C15.0965 14.2502 15.1094 14.2997 15.0887 14.5858C15.0693 14.8532 15.0387 14.9305 14.8954 15.0739C14.7506 15.2186 14.6757 15.2478 14.3965 15.268C14.0744 15.2913 14.0638 15.2876 13.855 15.0788C13.5775 14.8013 13.529 14.5643 13.68 14.223C13.7681 14.0239 13.84 13.9492 14.0246 13.8654C14.3034 13.7388 14.3954 13.7337 14.629 13.8313ZM6.35732 14.0504C6.04736 14.2221 5.98747 14.6515 6.23847 14.9025C6.39367 15.0577 6.41035 15.0613 6.96186 15.0613C7.45983 15.0613 7.54075 15.0479 7.64861 14.9474C7.92282 14.6919 7.92233 14.3432 7.64736 14.1118C7.49831 13.9864 7.44098 13.9747 6.98566 13.9764C6.67695 13.9776 6.43774 14.0058 6.35732 14.0504ZM21.2074 14.0278C20.8543 14.1705 20.7584 14.6194 21.0188 14.911C21.1734 15.0841 21.1898 15.0889 21.6845 15.1064C22.1442 15.1227 22.2094 15.1124 22.3818 14.996C22.7316 14.7597 22.7254 14.3004 22.3696 14.0834C22.2292 13.9979 22.0998 13.9756 21.7569 13.9782C21.5178 13.9799 21.2706 14.0023 21.2074 14.0278ZM13.9877 21.2166L13.796 21.4083V21.9258C13.796 22.4018 13.8071 22.4566 13.9351 22.6086C14.1102 22.8167 14.3722 22.874 14.6029 22.7548C14.8467 22.6287 14.8828 22.5203 14.8828 21.9149C14.8828 21.429 14.8698 21.3557 14.7604 21.2287C14.6779 21.1327 14.5635 21.0764 14.4088 21.0556C14.2 21.0277 14.1623 21.0421 13.9877 21.2166Z"/>
</mask>
<path fill-rule="evenodd" clip-rule="evenodd" d="M13.0624 0.667895C8.24723 1.12588 3.98154 4.07131 1.86883 8.39693C1.38498 9.38756 1.13018 10.0667 0.881135 11.0292C0.183781 13.7242 0.317133 16.6826 1.25261 19.2727C1.56431 20.1358 2.20053 21.4003 2.70166 22.1528C3.28913 23.035 3.75869 23.6098 4.50283 24.3576C6.70488 26.5705 9.48131 27.9442 12.5625 28.3456C13.398 28.4544 15.3043 28.4568 16.1134 28.3502C17.8159 28.1256 19.1855 27.7019 20.6973 26.9322C24.8368 24.8245 27.6648 20.7412 28.1988 16.1009C28.2968 15.2491 28.2382 13.0279 28.0975 12.2628C27.6618 9.89293 26.8746 8.06964 25.4319 6.08881C25.3608 5.99127 25.3749 5.98643 25.7307 5.98611C26.2536 5.98573 26.4941 5.90824 26.6258 5.69783C26.7738 5.46139 26.7303 5.19083 26.5128 4.99472L26.347 4.84528H25.183C24.5429 4.84528 23.9564 4.86914 23.8798 4.89826C23.8031 4.92739 23.6916 5.03134 23.6319 5.12921C23.533 5.29147 23.5234 5.40363 23.5232 6.39948C23.5231 7.03874 23.5472 7.56123 23.5814 7.65931C23.7247 8.07034 24.3566 8.138 24.5668 7.76484C24.6043 7.69827 24.6476 7.4851 24.6631 7.2911L24.6913 6.93837L25.0433 7.48129C27.541 11.334 27.8463 16.0614 25.8609 20.1422C25.2114 21.4774 24.3753 22.6277 23.2709 23.7057C20.766 26.1507 17.4002 27.4547 13.9319 27.3241C12.0213 27.2522 10.4097 26.8464 8.71516 26.0108C4.82235 24.0911 2.21846 20.4484 1.65332 16.1318C1.55708 15.3966 1.543 13.8606 1.62593 13.1322C2.19167 8.16044 5.57579 3.98197 10.3197 2.39772C11.8895 1.87344 13.0117 1.7189 14.9164 1.7646L16.2269 1.79606L16.3626 1.64967C16.4372 1.56919 16.5126 1.44448 16.53 1.37248C16.5716 1.20087 16.4463 0.908353 16.2862 0.803475C16.0253 0.632574 14.2286 0.556986 13.0624 0.667895ZM17.829 1.23494C17.3786 1.55044 17.5642 2.23693 18.0999 2.23693C18.373 2.23693 18.501 2.16656 18.6094 1.95702C18.8576 1.47714 18.2654 0.92922 17.829 1.23494ZM13.5515 4.17602C12.6751 4.2521 11.6065 4.49011 10.7529 4.79931C10.1344 5.02335 8.93089 5.64322 8.73602 5.83808C8.51578 6.05833 8.51671 6.36687 8.73814 6.58837C8.97469 6.82491 9.2108 6.8047 9.7397 6.50262C12.4466 4.95641 15.7084 4.84919 18.4421 6.21657C22.2678 8.13012 24.2821 12.2828 23.413 16.4641C22.9816 18.5394 21.7538 20.51 20.0724 21.8255C18.8831 22.7561 17.4721 23.3866 15.974 23.657C15.0575 23.8225 13.6307 23.8216 12.7364 23.655C9.12059 22.9815 6.27928 20.3426 5.40337 16.8443C4.82029 14.5157 5.07651 12.3727 6.20272 10.1588L6.63831 9.30252L6.56169 9.09809C6.45535 8.81432 6.16272 8.6676 5.88548 8.75911C5.66159 8.83302 5.48417 9.08206 5.07585 9.89559C3.06275 13.9065 3.85656 18.7249 7.05494 21.9087C8.47954 23.3269 10.2717 24.2851 12.2998 24.7128C13.1995 24.9026 14.833 24.9531 15.7523 24.8195C17.0232 24.6348 18.0017 24.324 19.1214 23.7492C21.7664 22.3915 23.6955 19.9606 24.4206 17.0719C24.6679 16.0867 24.7346 15.41 24.702 14.219C24.6695 13.0312 24.5526 12.3102 24.2343 11.3331C22.9511 7.39484 19.4829 4.61634 15.3254 4.1958C14.795 4.14211 14.0387 4.13369 13.5515 4.17602ZM14.0007 6.41665C13.8272 6.57152 13.8228 6.58663 13.807 7.08232C13.7934 7.51085 13.8075 7.616 13.8979 7.76049C14.0453 7.99601 14.32 8.08366 14.5757 7.97682C14.8698 7.85391 14.9511 7.64323 14.9287 7.06151C14.9106 6.59087 14.9043 6.57005 14.7325 6.41665C14.4927 6.20244 14.2405 6.20244 14.0007 6.41665ZM7.15357 7.10395C6.99625 7.18932 6.84024 7.43673 6.84062 7.60035C6.841 7.78239 7.04402 8.03839 7.2391 8.10279C7.84804 8.30374 8.23832 7.45749 7.69067 7.12357C7.48755 6.99972 7.35463 6.99489 7.15357 7.10395ZM19.1757 9.03516C19.101 9.06434 18.1918 9.93515 17.1554 10.9703L15.2708 12.8523L14.9891 12.7614C14.6295 12.6452 14.1042 12.645 13.7453 12.7609L13.4648 12.8516L12.4723 11.8643C11.6078 11.0044 11.4578 10.8771 11.3092 10.8771C10.9386 10.8771 10.6986 11.1151 10.6986 11.4824C10.6986 11.6379 10.8133 11.7737 11.6852 12.6502L12.6718 13.642L12.5751 13.9493C12.4391 14.3819 12.479 14.992 12.6675 15.3602C12.8498 15.7163 13.2065 16.0631 13.5783 16.2457C13.8392 16.3739 13.9401 16.3921 14.3666 16.3885C14.9537 16.3835 15.2421 16.2739 15.6345 15.9068C16.1632 15.4123 16.3722 14.6223 16.1484 13.9646L16.0433 13.6558L17.8848 11.8181C18.8976 10.8074 19.7614 9.91445 19.8042 9.83375C19.973 9.51602 19.8561 9.18987 19.5236 9.05092C19.4239 9.00924 19.3353 8.97675 19.3269 8.97859C19.3185 8.9805 19.2505 9.00593 19.1757 9.03516ZM14.629 13.8313C14.7265 13.872 14.8751 13.987 14.959 14.0868C15.0965 14.2502 15.1094 14.2997 15.0887 14.5858C15.0693 14.8532 15.0387 14.9305 14.8954 15.0739C14.7506 15.2186 14.6757 15.2478 14.3965 15.268C14.0744 15.2913 14.0638 15.2876 13.855 15.0788C13.5775 14.8013 13.529 14.5643 13.68 14.223C13.7681 14.0239 13.84 13.9492 14.0246 13.8654C14.3034 13.7388 14.3954 13.7337 14.629 13.8313ZM6.35732 14.0504C6.04736 14.2221 5.98747 14.6515 6.23847 14.9025C6.39367 15.0577 6.41035 15.0613 6.96186 15.0613C7.45983 15.0613 7.54075 15.0479 7.64861 14.9474C7.92282 14.6919 7.92233 14.3432 7.64736 14.1118C7.49831 13.9864 7.44098 13.9747 6.98566 13.9764C6.67695 13.9776 6.43774 14.0058 6.35732 14.0504ZM21.2074 14.0278C20.8543 14.1705 20.7584 14.6194 21.0188 14.911C21.1734 15.0841 21.1898 15.0889 21.6845 15.1064C22.1442 15.1227 22.2094 15.1124 22.3818 14.996C22.7316 14.7597 22.7254 14.3004 22.3696 14.0834C22.2292 13.9979 22.0998 13.9756 21.7569 13.9782C21.5178 13.9799 21.2706 14.0023 21.2074 14.0278ZM13.9877 21.2166L13.796 21.4083V21.9258C13.796 22.4018 13.8071 22.4566 13.9351 22.6086C14.1102 22.8167 14.3722 22.874 14.6029 22.7548C14.8467 22.6287 14.8828 22.5203 14.8828 21.9149C14.8828 21.429 14.8698 21.3557 14.7604 21.2287C14.6779 21.1327 14.5635 21.0764 14.4088 21.0556C14.2 21.0277 14.1623 21.0421 13.9877 21.2166Z" fill="#63A748"/>
<path fill-rule="evenodd" clip-rule="evenodd" d="M13.0624 0.667895C8.24723 1.12588 3.98154 4.07131 1.86883 8.39693C1.38498 9.38756 1.13018 10.0667 0.881135 11.0292C0.183781 13.7242 0.317133 16.6826 1.25261 19.2727C1.56431 20.1358 2.20053 21.4003 2.70166 22.1528C3.28913 23.035 3.75869 23.6098 4.50283 24.3576C6.70488 26.5705 9.48131 27.9442 12.5625 28.3456C13.398 28.4544 15.3043 28.4568 16.1134 28.3502C17.8159 28.1256 19.1855 27.7019 20.6973 26.9322C24.8368 24.8245 27.6648 20.7412 28.1988 16.1009C28.2968 15.2491 28.2382 13.0279 28.0975 12.2628C27.6618 9.89293 26.8746 8.06964 25.4319 6.08881C25.3608 5.99127 25.3749 5.98643 25.7307 5.98611C26.2536 5.98573 26.4941 5.90824 26.6258 5.69783C26.7738 5.46139 26.7303 5.19083 26.5128 4.99472L26.347 4.84528H25.183C24.5429 4.84528 23.9564 4.86914 23.8798 4.89826C23.8031 4.92739 23.6916 5.03134 23.6319 5.12921C23.533 5.29147 23.5234 5.40363 23.5232 6.39948C23.5231 7.03874 23.5472 7.56123 23.5814 7.65931C23.7247 8.07034 24.3566 8.138 24.5668 7.76484C24.6043 7.69827 24.6476 7.4851 24.6631 7.2911L24.6913 6.93837L25.0433 7.48129C27.541 11.334 27.8463 16.0614 25.8609 20.1422C25.2114 21.4774 24.3753 22.6277 23.2709 23.7057C20.766 26.1507 17.4002 27.4547 13.9319 27.3241C12.0213 27.2522 10.4097 26.8464 8.71516 26.0108C4.82235 24.0911 2.21846 20.4484 1.65332 16.1318C1.55708 15.3966 1.543 13.8606 1.62593 13.1322C2.19167 8.16044 5.57579 3.98197 10.3197 2.39772C11.8895 1.87344 13.0117 1.7189 14.9164 1.7646L16.2269 1.79606L16.3626 1.64967C16.4372 1.56919 16.5126 1.44448 16.53 1.37248C16.5716 1.20087 16.4463 0.908353 16.2862 0.803475C16.0253 0.632574 14.2286 0.556986 13.0624 0.667895ZM17.829 1.23494C17.3786 1.55044 17.5642 2.23693 18.0999 2.23693C18.373 2.23693 18.501 2.16656 18.6094 1.95702C18.8576 1.47714 18.2654 0.92922 17.829 1.23494ZM13.5515 4.17602C12.6751 4.2521 11.6065 4.49011 10.7529 4.79931C10.1344 5.02335 8.93089 5.64322 8.73602 5.83808C8.51578 6.05833 8.51671 6.36687 8.73814 6.58837C8.97469 6.82491 9.2108 6.8047 9.7397 6.50262C12.4466 4.95641 15.7084 4.84919 18.4421 6.21657C22.2678 8.13012 24.2821 12.2828 23.413 16.4641C22.9816 18.5394 21.7538 20.51 20.0724 21.8255C18.8831 22.7561 17.4721 23.3866 15.974 23.657C15.0575 23.8225 13.6307 23.8216 12.7364 23.655C9.12059 22.9815 6.27928 20.3426 5.40337 16.8443C4.82029 14.5157 5.07651 12.3727 6.20272 10.1588L6.63831 9.30252L6.56169 9.09809C6.45535 8.81432 6.16272 8.6676 5.88548 8.75911C5.66159 8.83302 5.48417 9.08206 5.07585 9.89559C3.06275 13.9065 3.85656 18.7249 7.05494 21.9087C8.47954 23.3269 10.2717 24.2851 12.2998 24.7128C13.1995 24.9026 14.833 24.9531 15.7523 24.8195C17.0232 24.6348 18.0017 24.324 19.1214 23.7492C21.7664 22.3915 23.6955 19.9606 24.4206 17.0719C24.6679 16.0867 24.7346 15.41 24.702 14.219C24.6695 13.0312 24.5526 12.3102 24.2343 11.3331C22.9511 7.39484 19.4829 4.61634 15.3254 4.1958C14.795 4.14211 14.0387 4.13369 13.5515 4.17602ZM14.0007 6.41665C13.8272 6.57152 13.8228 6.58663 13.807 7.08232C13.7934 7.51085 13.8075 7.616 13.8979 7.76049C14.0453 7.99601 14.32 8.08366 14.5757 7.97682C14.8698 7.85391 14.9511 7.64323 14.9287 7.06151C14.9106 6.59087 14.9043 6.57005 14.7325 6.41665C14.4927 6.20244 14.2405 6.20244 14.0007 6.41665ZM7.15357 7.10395C6.99625 7.18932 6.84024 7.43673 6.84062 7.60035C6.841 7.78239 7.04402 8.03839 7.2391 8.10279C7.84804 8.30374 8.23832 7.45749 7.69067 7.12357C7.48755 6.99972 7.35463 6.99489 7.15357 7.10395ZM19.1757 9.03516C19.101 9.06434 18.1918 9.93515 17.1554 10.9703L15.2708 12.8523L14.9891 12.7614C14.6295 12.6452 14.1042 12.645 13.7453 12.7609L13.4648 12.8516L12.4723 11.8643C11.6078 11.0044 11.4578 10.8771 11.3092 10.8771C10.9386 10.8771 10.6986 11.1151 10.6986 11.4824C10.6986 11.6379 10.8133 11.7737 11.6852 12.6502L12.6718 13.642L12.5751 13.9493C12.4391 14.3819 12.479 14.992 12.6675 15.3602C12.8498 15.7163 13.2065 16.0631 13.5783 16.2457C13.8392 16.3739 13.9401 16.3921 14.3666 16.3885C14.9537 16.3835 15.2421 16.2739 15.6345 15.9068C16.1632 15.4123 16.3722 14.6223 16.1484 13.9646L16.0433 13.6558L17.8848 11.8181C18.8976 10.8074 19.7614 9.91445 19.8042 9.83375C19.973 9.51602 19.8561 9.18987 19.5236 9.05092C19.4239 9.00924 19.3353 8.97675 19.3269 8.97859C19.3185 8.9805 19.2505 9.00593 19.1757 9.03516ZM14.629 13.8313C14.7265 13.872 14.8751 13.987 14.959 14.0868C15.0965 14.2502 15.1094 14.2997 15.0887 14.5858C15.0693 14.8532 15.0387 14.9305 14.8954 15.0739C14.7506 15.2186 14.6757 15.2478 14.3965 15.268C14.0744 15.2913 14.0638 15.2876 13.855 15.0788C13.5775 14.8013 13.529 14.5643 13.68 14.223C13.7681 14.0239 13.84 13.9492 14.0246 13.8654C14.3034 13.7388 14.3954 13.7337 14.629 13.8313ZM6.35732 14.0504C6.04736 14.2221 5.98747 14.6515 6.23847 14.9025C6.39367 15.0577 6.41035 15.0613 6.96186 15.0613C7.45983 15.0613 7.54075 15.0479 7.64861 14.9474C7.92282 14.6919 7.92233 14.3432 7.64736 14.1118C7.49831 13.9864 7.44098 13.9747 6.98566 13.9764C6.67695 13.9776 6.43774 14.0058 6.35732 14.0504ZM21.2074 14.0278C20.8543 14.1705 20.7584 14.6194 21.0188 14.911C21.1734 15.0841 21.1898 15.0889 21.6845 15.1064C22.1442 15.1227 22.2094 15.1124 22.3818 14.996C22.7316 14.7597 22.7254 14.3004 22.3696 14.0834C22.2292 13.9979 22.0998 13.9756 21.7569 13.9782C21.5178 13.9799 21.2706 14.0023 21.2074 14.0278ZM13.9877 21.2166L13.796 21.4083V21.9258C13.796 22.4018 13.8071 22.4566 13.9351 22.6086C14.1102 22.8167 14.3722 22.874 14.6029 22.7548C14.8467 22.6287 14.8828 22.5203 14.8828 21.9149C14.8828 21.429 14.8698 21.3557 14.7604 21.2287C14.6779 21.1327 14.5635 21.0764 14.4088 21.0556C14.2 21.0277 14.1623 21.0421 13.9877 21.2166Z" stroke="#63A748" stroke-width="0.4" mask="url(#path-1-outside-1_2959_80)"/>
</svg>
