<svg width="19" height="20" viewBox="0 0 19 20" fill="none" xmlns="http://www.w3.org/2000/svg">
<path fill-rule="evenodd" clip-rule="evenodd" d="M3.54777 0.80835C3.41925 0.825441 3.12188 0.883258 2.88701 0.936868C1.61378 1.22749 0.586165 2.29035 0.310234 3.60211C0.178244 4.22961 0.177175 5.44877 0.308431 5.70254C0.610199 6.28618 1.32817 6.33752 1.68201 5.80081C1.79077 5.63577 1.81113 5.48362 1.81146 4.83268C1.812 3.90875 1.91475 3.50637 2.24996 3.11467C2.7826 2.49244 3.34648 2.33649 4.89264 2.38375C6.52285 2.43362 7.2746 2.6914 9.06258 3.81381C10.3757 4.63813 10.9065 4.90272 11.7075 5.13225C12.9237 5.48075 14.1273 5.5162 15.2855 5.23773C15.9136 5.08671 16.0965 5.07643 16.4431 5.17277C16.7603 5.26083 17.1897 5.69399 17.2892 6.02614C17.413 6.4394 17.3988 12.9913 17.2731 13.4086C17.0725 14.0755 16.5902 14.4196 15.4316 14.7228C14.6144 14.9366 13.3 14.9374 12.4606 14.7245C11.3687 14.4475 10.4607 13.936 9.34832 12.9709C8.02622 11.824 7.42589 11.4566 6.58548 11.2801C5.64078 11.0818 4.83308 11.1892 3.77256 11.6544C3.07348 11.961 2.88087 12.1583 2.8804 12.5684C2.88 12.9094 3.04144 13.1525 3.35035 13.2761C3.66867 13.4034 3.78805 13.38 4.54921 13.0402C5.0086 12.8351 5.10514 12.8167 5.71896 12.8161C6.34126 12.8155 6.41823 12.8305 6.82055 13.0324C7.0625 13.1538 7.5767 13.5301 7.9875 13.8865C9.36455 15.0813 10.1891 15.6192 11.2522 16.0163C12.8092 16.5981 14.7562 16.6253 16.4011 16.0884C17.6551 15.679 18.3785 15.0282 18.7833 13.9449C18.9276 13.5588 18.9315 13.4691 18.9548 10.022C18.9694 7.84803 18.9526 6.32757 18.911 6.06025C18.7111 4.77627 17.7601 3.79599 16.4879 3.56245C16.0259 3.47766 15.8859 3.49128 14.7305 3.7331C13.8628 3.91469 12.8815 3.852 11.9599 3.55611C11.371 3.3671 11.1605 3.25581 9.92362 2.48003C8.48408 1.57712 7.63031 1.19611 6.45195 0.930726C5.98888 0.826442 4.03213 0.74399 3.54777 0.80835ZM3.70933 3.96163C3.34808 4.18201 3.34113 4.2435 3.36183 7.0653L3.38086 9.65523L3.59891 9.84998C3.9862 10.1959 4.62338 10.078 4.84063 9.62031C4.9355 9.42043 4.94979 9.06985 4.94979 6.94352C4.94979 4.2889 4.94712 4.268 4.57491 3.97518C4.35259 3.80033 3.98339 3.79452 3.70933 3.96163ZM0.630161 7.83508C0.189059 8.11181 0.209622 7.8318 0.209622 13.554C0.209622 18.718 0.210223 18.7401 0.35156 18.9917C0.429673 19.1306 0.566269 19.2774 0.655131 19.3179C1.06379 19.5041 1.57893 19.3254 1.73756 18.9426C1.7937 18.807 1.80953 17.3383 1.79644 13.4676L1.77855 8.1779L1.57205 7.97141C1.30126 7.70068 0.93006 7.64694 0.630161 7.83508Z" fill="#63A748"/>
</svg>
