<svg width="260" height="256" viewBox="0 0 260 256" fill="none" xmlns="http://www.w3.org/2000/svg">
<path d="M180.009 97.0791L137.117 138.886L169.188 185.339C157.08 205.21 136.881 246.501 152.957 252.695C199.95 249.598 233.359 209.249 248.208 167.452L251.508 146.628L248.798 125.725L231.021 93.208L180.009 97.0791Z" fill="url(#paint0_linear_2867_295)"/>
<path d="M4.57694 106.956C11.4032 84.7707 66.81 120.696 94.6106 145.002C134.211 134.52 191.379 129.237 197.936 168.072C205.575 213.318 174.844 246.513 159.664 252.144C60.6724 275.792 -19.6213 185.599 4.57694 106.956Z" fill="url(#paint1_linear_2867_295)"/>
<path d="M2.92976 100.357C5.70537 86.1868 18.4506 62.4186 23.665 54.4578C6.53237 96.9984 59.4203 102.223 92.1964 45.5018C121.83 -5.78057 148.81 3.70753 160.728 3.70753C170.263 3.70753 190.028 15.1512 198.719 20.873C196.981 21.3706 194.1 23.7091 196.484 29.0826C200.06 36.2474 207.409 34.0582 210.637 32.068L221.811 44.0092L218.463 46.2487L191.646 69.3849L183.076 65.6526L180.473 60.429L186.055 46.2481V38.0386C186.055 36.5459 184.197 36.248 172.279 35.0538C160.36 33.8597 133.962 64.8598 121.795 81.0302C104.662 105.659 89.5928 135.062 53.0925 141.779C16.5922 148.495 -1.16348 121.255 2.92976 100.357Z" fill="url(#paint2_linear_2867_295)"/>
<path opacity="0.05" d="M77.0812 186.832C68.3062 189.186 61.5127 187.566 53.4331 186.832L131.47 140.895C140.284 134.285 185.089 135.019 196.107 160.727C139.549 126.94 122.178 174.733 77.0812 186.832Z" fill="black"/>
<path d="M163.516 3.93175C88.1728 -12.3833 38.4396 31.7888 23.2781 54.7112C21.5382 58.9013 18.185 67.8188 19.9745 74.9174C22.2115 83.7906 29.2996 91.9243 52.4147 85.2694C70.9068 79.9455 91.7683 48.1086 99.7219 33.8129C125.074 1.27789 142.638 3.93175 163.516 3.93175Z" fill="url(#paint3_radial_2867_295)"/>
<path opacity="0.05" d="M239.961 120.155C210.58 103.702 175.028 124.246 161.317 137.957L142.487 137.957C139.304 136.978 139.99 130.759 168.195 113.718C203.452 92.4175 223.462 98.1571 239.961 120.155Z" fill="black"/>
<path fill-rule="evenodd" clip-rule="evenodd" d="M2.93006 98.7066C-4.50864 127.718 -1.0165 183.104 59.0882 186.674C93.4938 186.674 139.167 142.268 162.949 119.145C164.362 117.771 165.698 116.473 166.949 115.263C185.298 102.121 226.459 85.5082 244.312 124.189C251.007 136.835 250.263 147.993 247.287 169.565C259.807 136.925 254.319 104.016 244.072 79.4C244.142 79.4795 244.208 79.5427 244.27 79.5899L243.969 79.1536C243.593 78.2541 243.21 77.3658 242.821 76.489C242.318 74.4121 242.053 71.2768 242.62 66.9408C243.17 62.7391 246.891 60.8933 250.733 58.9872C256.111 56.3194 261.727 53.5335 259.221 44.0052C256.107 32.1678 231.996 38.4624 221.352 43.9437C221.319 43.9128 221.285 43.8821 221.252 43.8514C211.135 50.3975 201.167 58.4809 197.448 61.7043C192.737 64.9277 183.166 69.5893 182.571 62.4482C182.021 61.3489 182.994 58.3206 184.178 54.6386C186.198 48.3541 188.829 40.1652 185.546 36.4126C180.248 30.3572 170.669 27.4863 149.84 44.5953C140.07 52.6213 128.007 68.6687 115.803 84.9044C101.991 103.278 87.9986 121.893 76.941 129.396C60.5759 145.762 -2.27699 153.009 2.93006 98.7066Z" fill="url(#paint4_linear_2867_295)"/>
<ellipse cx="202.013" cy="27.7623" rx="9.8992" ry="9.34924" fill="url(#paint5_linear_2867_295)"/>
<defs>
<linearGradient id="paint0_linear_2867_295" x1="257.691" y1="84.6917" x2="172.508" y2="182.875" gradientUnits="userSpaceOnUse">
<stop stop-color="#F7E275"/>
<stop offset="1" stop-color="#83E430"/>
</linearGradient>
<linearGradient id="paint1_linear_2867_295" x1="205.218" y1="137.885" x2="7.23434" y2="153.283" gradientUnits="userSpaceOnUse">
<stop stop-color="#00B53D"/>
<stop offset="1" stop-color="#DBC976"/>
</linearGradient>
<linearGradient id="paint2_linear_2867_295" x1="114.177" y1="23.1126" x2="149.295" y2="93.9607" gradientUnits="userSpaceOnUse">
<stop stop-color="#4DE8B0"/>
<stop offset="0.927083" stop-color="#00B856"/>
</linearGradient>
<radialGradient id="paint3_radial_2867_295" cx="0" cy="0" r="1" gradientUnits="userSpaceOnUse" gradientTransform="translate(77.0214 19.4598) rotate(105.648) scale(69.1105 113.233)">
<stop stop-color="#E7FFEA"/>
<stop offset="0.927083" stop-color="#90EFB6"/>
</radialGradient>
<linearGradient id="paint4_linear_2867_295" x1="253.83" y1="78.8134" x2="14.5022" y2="38.7267" gradientUnits="userSpaceOnUse">
<stop stop-color="#54DF9F"/>
<stop offset="0.374317" stop-color="#CAFFC6"/>
<stop offset="0.940618" stop-color="#85FFB4"/>
</linearGradient>
<linearGradient id="paint5_linear_2867_295" x1="211.454" y1="24.0976" x2="160.013" y2="16.5149" gradientUnits="userSpaceOnUse">
<stop stop-color="#6AE176"/>
<stop offset="0.374317" stop-color="#BFFFBA"/>
<stop offset="0.940618" stop-color="#49BF1F"/>
</linearGradient>
</defs>
</svg>
