<svg width="21" height="21" viewBox="0 0 21 21" fill="none" xmlns="http://www.w3.org/2000/svg">
<path fill-rule="evenodd" clip-rule="evenodd" d="M16.4888 0.510321C14.0413 0.805168 11.7387 1.65576 9.95066 2.92566C9.53411 3.22153 8.68486 3.96893 8.03514 4.61149L6.86788 5.76591L5.30872 5.88974C4.45112 5.9578 3.64708 6.05217 3.52191 6.09935C3.12521 6.24894 2.80169 6.64486 1.70768 8.31958C0.546884 10.0963 0.453853 10.3295 0.710417 10.8175C0.961231 11.2948 1.15092 11.3724 2.60601 11.5936L3.94744 11.7975L3.97856 12.2867C4.00203 12.656 4.06174 12.8509 4.22212 13.0823C4.54423 13.5471 7.98181 16.9272 8.29462 17.0866C8.45421 17.168 8.74173 17.2263 8.98388 17.2263C9.23462 17.2263 9.39957 17.2609 9.40004 17.3135C9.40366 17.7003 9.82187 19.9536 9.91703 20.0988C10.1344 20.4306 10.5014 20.6032 10.9137 20.5678C11.2388 20.5398 11.5077 20.3874 13.0405 19.3621C15.2631 17.8755 15.1302 18.08 15.2938 15.8957L15.4139 14.295L16.1411 13.6237C17.9349 11.9676 19.3292 9.87739 19.9796 7.86915C20.5248 6.18585 20.6735 5.26444 20.7173 3.30031C20.7533 1.68711 20.7497 1.63733 20.5712 1.29262C20.4659 1.08954 20.2429 0.838253 20.0468 0.701818L19.7055 0.464475L18.3925 0.451792C17.6704 0.44486 16.8138 0.47117 16.4888 0.510321ZM19.3962 1.7365L19.5816 1.8664L19.5392 3.25289C19.4715 5.46153 19.0851 7.12427 18.2285 8.8932C17.6002 10.1908 16.9521 11.07 15.7017 12.3213C14.6406 13.3832 13.7547 14.0737 12.5811 14.7537L11.9832 15.1L9.03957 12.1571L6.0959 9.2142L6.38122 8.69926C7.72737 6.26935 9.99163 4.05984 12.273 2.94992C14.0217 2.09917 16.0958 1.6467 18.3815 1.61732C19.0369 1.60889 19.2498 1.63394 19.3962 1.7365ZM13.6136 3.92277C13.0786 4.09245 12.6838 4.33515 12.2981 4.73154C11.0041 6.06139 11.2421 8.24332 12.7904 9.24398C14.2804 10.207 16.277 9.66778 17.0522 8.09302C17.513 7.15696 17.4496 6.03823 16.8864 5.16676C16.2051 4.11262 14.7542 3.56113 13.6136 3.92277ZM15.2267 5.23009C15.5907 5.41686 15.8128 5.66271 16.0096 6.09675C16.3171 6.77499 16.1531 7.53208 15.5854 8.05545C14.4456 9.10605 12.6698 8.31375 12.6772 6.7579C12.6835 5.44617 14.0506 4.62685 15.2267 5.23009ZM5.93323 7.07992C5.93323 7.10072 5.81389 7.3045 5.668 7.53287C5.29013 8.1243 4.81497 9.09651 4.51232 9.89756C4.3146 10.4208 4.21692 10.5868 4.10664 10.5868C3.91577 10.5868 1.9711 10.2745 1.93463 10.238C1.89304 10.1964 3.80754 7.32735 3.9205 7.26197C3.99888 7.21659 4.65624 7.14333 5.79538 7.05298C5.87124 7.04692 5.93323 7.05905 5.93323 7.07992ZM10.7384 15.5573C10.7384 15.6311 9.6351 15.9418 9.19751 15.9912L8.80845 16.0352L6.97698 14.1934C5.96971 13.1804 5.14574 12.3001 5.14605 12.2372C5.14684 12.0766 5.43113 10.9099 5.53756 10.6305L5.62594 10.3986L8.18213 12.9539C9.58807 14.3593 10.7384 15.5309 10.7384 15.5573ZM2.90047 13.9724C2.81382 14.0093 2.26619 14.5198 1.68342 15.1067C0.710102 16.0872 0.623924 16.1975 0.623924 16.4627C0.623924 16.8106 0.868278 17.0462 1.22898 17.0462C1.43308 17.0462 1.63718 16.8805 2.56277 15.9634C3.16381 15.3678 3.6756 14.8006 3.70009 14.703C3.77312 14.412 3.66142 14.1422 3.41525 14.0149C3.15569 13.8806 3.12229 13.8779 2.90047 13.9724ZM14.0568 16.2533C14.012 16.7778 13.9511 17.2464 13.9213 17.2945C13.8653 17.3852 11.2147 19.1464 11.0243 19.2195C10.9407 19.2516 10.8766 19.0027 10.7386 18.1111C10.6408 17.4788 10.5741 16.9511 10.5905 16.9387C10.6068 16.9263 10.8506 16.8347 11.1323 16.7353C11.7905 16.5028 13.0969 15.8777 13.653 15.5291C13.8913 15.3796 14.0979 15.2668 14.1122 15.2785C14.1265 15.2901 14.1016 15.7287 14.0568 16.2533ZM2.60672 17.7371C0.928225 19.4157 0.57666 19.8051 0.57666 19.9858C0.57666 20.2897 0.896085 20.591 1.21835 20.591C1.44647 20.591 1.68342 20.3814 3.467 18.6016C5.36363 16.709 5.4606 16.5978 5.4606 16.3172C5.4606 15.9444 5.23908 15.7071 4.89114 15.7071C4.66373 15.7071 4.42268 15.9213 2.60672 17.7371ZM5.28627 18.6049C4.01314 19.878 3.93657 20.0194 4.31484 20.3976C4.68783 20.7707 4.8323 20.6942 6.06841 19.4687C6.69103 18.8513 7.21984 18.269 7.24355 18.1746C7.26718 18.0801 7.26316 17.929 7.23449 17.8388C7.17879 17.6631 6.81817 17.4401 6.58997 17.4401C6.51356 17.4401 5.92693 17.9642 5.28627 18.6049Z" fill="#63A748"/>
</svg>
