<svg width="28" height="31" viewBox="0 0 28 31" fill="none" xmlns="http://www.w3.org/2000/svg">
<path fill-rule="evenodd" clip-rule="evenodd" d="M20.6688 0.977393C20.5865 1.033 20.4037 1.17346 20.2624 1.28943C19.1638 2.19177 16.9084 3.34962 15.0755 3.95216C14.5745 4.11689 14.4042 4.27471 14.4056 4.57305C14.4071 4.86931 14.5544 5.88947 14.6641 6.36235C14.7129 6.57281 14.7528 6.7564 14.7528 6.77039C14.7528 6.78438 11.9738 6.79582 8.57731 6.79582C2.54233 6.79582 2.39321 6.79849 2.02168 6.91324C1.56145 7.05539 1.07099 7.4719 0.833303 7.92232L0.677341 8.21787L0.662134 17.5443C0.646985 26.846 0.647275 26.8716 0.766844 27.1911C0.93157 27.6314 1.34298 28.0743 1.77888 28.2804C1.97112 28.3714 2.19372 28.4463 2.27353 28.4468C2.35334 28.4473 2.44957 28.4674 2.48742 28.4914C2.52526 28.5155 2.66329 28.9265 2.79412 29.4047C2.9596 30.0095 3.06872 30.3052 3.15259 30.3759C3.26166 30.4678 3.44263 30.4774 5.05589 30.4774C6.83009 30.4774 6.83926 30.4768 6.96005 30.3468C7.03603 30.2651 7.16703 29.9011 7.31005 29.3746L7.53868 28.533L11.4607 28.5181L15.3828 28.5032L15.4692 28.8083C15.5168 28.9761 15.6116 29.3224 15.6799 29.5778C15.8473 30.2039 15.911 30.3558 16.0339 30.4216C16.0941 30.4539 16.8876 30.4774 17.9123 30.4774C19.9213 30.4774 19.848 30.4943 19.9788 30.0017C20.1528 29.3464 20.3851 28.5406 20.4061 28.5196C20.4189 28.5067 20.573 28.4628 20.7486 28.422C21.3559 28.2809 21.8473 27.8804 22.1385 27.2895L22.2694 27.0239L22.2984 20.3133L22.3275 13.6028L22.7338 13.272C23.3073 12.8051 24.2106 11.908 24.7253 11.2942C26.2695 9.45269 27.3073 6.99374 27.4444 4.85137C27.4762 4.35452 27.4712 4.32294 27.3405 4.2057C27.2649 4.1379 27.0202 4.02298 26.7968 3.95037C24.971 3.35693 22.7436 2.19949 21.5148 1.20556C21.078 0.852136 20.9177 0.808951 20.6688 0.977393ZM21.3848 2.22758C22.6316 3.13962 24.4866 4.09507 26.0926 4.65228C26.3119 4.72838 26.5057 4.82827 26.5234 4.87435C26.571 4.99833 26.3887 6.05205 26.2161 6.65071C25.627 8.69389 24.3993 10.6084 22.7047 12.1262C22.1097 12.6592 21.0432 13.4712 20.9399 13.47C20.8416 13.4689 19.8752 12.7391 19.2584 12.2002C17.4725 10.6397 16.1271 8.51117 15.6037 6.41801C15.4407 5.76648 15.3077 4.98597 15.3421 4.88295C15.3545 4.84545 15.7691 4.6589 16.2632 4.4684C17.8308 3.86388 19.4377 3.01622 20.4126 2.27936C20.6677 2.0866 20.8962 1.92692 20.9205 1.92454C20.9447 1.92216 21.1536 2.05851 21.3848 2.22758ZM20.4369 4.60788C19.8535 4.77313 19.4231 5.13363 19.1216 5.70965C18.9836 5.97323 18.963 6.07956 18.962 6.53462C18.9611 6.98039 18.9836 7.1053 19.1153 7.38641C19.2003 7.56756 19.3766 7.83171 19.5071 7.97334L19.7445 8.23088V9.19892C19.7445 10.0363 19.7594 10.196 19.855 10.3823C20.259 11.1701 21.3162 11.278 21.8838 10.5893C22.1202 10.3026 22.1823 9.97026 22.1823 8.99264V8.1769L22.4404 7.88987C23.1125 7.14233 23.1109 5.98315 22.4366 5.23324C21.9429 4.68409 21.0994 4.42028 20.4369 4.60788ZM21.3879 5.53959C21.6265 5.63931 21.9003 5.92714 21.9889 6.17168C22.1599 6.64293 22.0127 7.09857 21.5663 7.47991L21.2827 7.72219L21.2537 8.88647C21.23 9.83589 21.2086 10.0609 21.1376 10.1056C21.0056 10.1889 20.8395 10.1732 20.7213 10.0663C20.6256 9.97966 20.6152 9.8623 20.6152 8.87562V7.78104L20.273 7.44805C19.9519 7.1356 19.8032 6.85572 19.8032 6.56364C19.8032 6.19484 20.1335 5.68789 20.469 5.54174C20.6986 5.44167 21.151 5.44062 21.3879 5.53959ZM15.2125 8.08728C15.2894 8.28683 15.4629 8.66556 15.5979 8.9289L15.8434 9.40776H9.70172C6.32372 9.40776 3.51768 9.42401 3.46603 9.4438C3.25254 9.52576 3.20222 9.77262 3.20222 10.7384V11.6685L3.0426 11.752C2.79789 11.8802 2.49978 12.1974 2.38213 12.455C2.2928 12.6506 2.27597 12.8428 2.27539 13.6739C2.27469 14.5883 2.28467 14.6821 2.41092 14.9533C2.54523 15.2417 2.81153 15.517 3.07006 15.6349L3.20222 15.6951V17.6522V19.6093L3.02612 19.6822C2.78698 19.7813 2.42514 20.2046 2.34179 20.4828C2.25548 20.771 2.25199 22.4167 2.33709 22.7232C2.405 22.9676 2.95316 23.5703 3.10761 23.5703C3.18109 23.5703 3.19758 23.7303 3.21302 24.5912L3.23124 25.6121L3.39411 25.7521L3.55698 25.892H11.4688H19.3806L19.5335 25.7717L19.6865 25.6514V19.7062C19.6865 16.4363 19.7005 13.761 19.7177 13.761C19.7349 13.761 19.982 13.9177 20.2669 14.1093C20.8076 14.4728 21.0188 14.5306 21.2281 14.3723C21.29 14.3254 21.3603 14.2862 21.3843 14.2852C21.4082 14.2842 21.4272 17.0717 21.4265 20.4795C21.4253 26.3867 21.4202 26.6865 21.3177 26.9078C21.1926 27.178 20.9453 27.4258 20.713 27.5135C20.6 27.5562 17.7326 27.5753 11.4312 27.5753H2.31277L2.06602 27.4307C1.93032 27.3512 1.75822 27.1879 1.68364 27.0679L1.54799 26.8497V17.6457V8.44157L1.70749 8.20058C1.79519 8.06806 1.96497 7.90787 2.08477 7.8446C2.29797 7.73205 2.43762 7.72956 8.68759 7.72706L15.0726 7.72451L15.2125 8.08728ZM16.7927 10.8443C17.0253 11.1556 17.5755 11.7759 18.0154 12.2229L18.8153 13.0355L18.8155 13.5658L18.8158 14.0961L18.4228 14.1184C17.9674 14.1441 17.7245 14.2809 17.575 14.5957C17.4921 14.7706 17.4808 15.1362 17.4808 17.6596C17.4808 20.3201 17.4884 20.5393 17.5867 20.7271C17.7301 21.001 18.1075 21.1905 18.5097 21.1905H18.8174L18.8021 23.0914L18.7868 24.9924L11.4589 25.0071L4.13091 25.0218V24.2961C4.13091 23.7231 4.14751 23.5703 4.20979 23.5703C4.34822 23.5703 4.84026 23.0899 4.9506 22.847C5.04051 22.649 5.05722 22.4567 5.05833 21.6095C5.05925 20.8776 5.0376 20.5537 4.97817 20.4115C4.86881 20.1498 4.51818 19.7697 4.3044 19.6812L4.13091 19.6093V17.6522V15.6951L4.26888 15.6322C4.51481 15.5201 4.8124 15.2168 4.93742 14.9508C5.04701 14.7178 5.0596 14.5867 5.0596 13.6812C5.0596 12.6904 5.05658 12.6657 4.89865 12.3634C4.78442 12.1447 4.6497 11.996 4.4343 11.8511L4.13091 11.647V10.9627V10.2784H10.2504H16.3699L16.7927 10.8443ZM4.05836 12.6904C4.18083 12.8296 4.18895 12.8906 4.18895 13.6727C4.18895 14.4852 4.18507 14.5113 4.03868 14.6852C3.91917 14.8273 3.84302 14.8638 3.66657 14.8638C3.49011 14.8638 3.41396 14.8273 3.29445 14.6852C3.1487 14.512 3.14418 14.4828 3.14505 13.713C3.14557 13.1932 3.17099 12.8697 3.2187 12.7754C3.37948 12.4576 3.81475 12.4136 4.05836 12.6904ZM10.5936 12.624C9.15281 12.8993 7.97076 13.6905 7.1845 14.9059C6.64122 15.7457 6.3946 16.6105 6.3946 17.6753C6.3946 20.0518 8.0248 22.0767 10.3749 22.6193C10.9668 22.756 12.0104 22.7568 12.5682 22.6211C14.6547 22.1134 16.1636 20.5059 16.4977 18.4346C16.5924 17.8475 16.5364 16.8171 16.381 16.2859C15.8631 14.5154 14.4851 13.1663 12.7267 12.708C12.1531 12.5586 11.144 12.5188 10.5936 12.624ZM12.344 13.5403C14.4735 13.9947 15.9575 16.1136 15.6279 18.229C15.4742 19.2154 15.1341 19.8778 14.4046 20.6115C13.5762 21.4447 12.6509 21.829 11.4734 21.829C10.2789 21.829 9.36908 21.4468 8.51189 20.5851C7.93587 20.006 7.66435 19.5606 7.4302 18.8108C7.23494 18.1854 7.235 17.1131 7.43032 16.4911C8.11262 14.3182 10.1779 13.078 12.344 13.5403ZM11.191 13.8813C11.0432 13.9975 11.0381 14.0221 11.0381 14.6069C11.0381 15.1347 11.0529 15.2269 11.1541 15.3282C11.3158 15.4898 11.6218 15.4809 11.7825 15.3099C11.8942 15.191 11.9087 15.1108 11.9087 14.6108C11.9087 14.0885 11.898 14.0352 11.7662 13.9035C11.5921 13.7294 11.3939 13.7217 11.191 13.8813ZM8.85069 14.8062C8.69647 14.8683 8.60024 15.0359 8.60024 15.2423C8.60024 15.3521 8.70437 15.505 8.96301 15.775C9.37976 16.21 9.50972 16.2778 9.76017 16.1905C9.96065 16.1206 10.0513 15.9875 10.0513 15.763C10.0513 15.5202 9.25212 14.7333 9.02395 14.7514C8.99841 14.7534 8.92046 14.7781 8.85069 14.8062ZM13.7371 14.8028C13.6732 14.8291 13.4578 15.0211 13.2582 15.2294C12.9996 15.4995 12.8954 15.6526 12.8954 15.7623C12.8954 16.123 13.1695 16.3137 13.4932 16.1784C13.7496 16.0712 14.3465 15.4166 14.3465 15.2426C14.3465 15.027 14.2872 14.9242 14.1102 14.8327C13.9261 14.7375 13.901 14.7354 13.7371 14.8028ZM18.8158 16.0827V17.1855H18.5837H18.3515V16.0827V14.9799H18.5837H18.8158V16.0827ZM10.98 15.8468C10.6839 15.9372 10.3637 16.1383 10.1267 16.3826C9.44726 17.0832 9.44146 18.156 10.1131 18.8909C10.5042 19.3189 10.8664 19.4749 11.4734 19.4768C11.8655 19.478 11.9889 19.4531 12.2663 19.3169C13.1135 18.9008 13.5154 17.9168 13.2115 17.002C13.07 16.576 12.5747 16.0812 12.1242 15.9158C11.7831 15.7906 11.2662 15.7594 10.98 15.8468ZM11.8912 16.7848C12.4986 17.0789 12.6092 17.892 12.1045 18.3539C11.4514 18.9516 10.4541 18.4506 10.5279 17.5619C10.5588 17.1879 10.7406 16.9194 11.0613 16.7737C11.3716 16.6329 11.5831 16.6357 11.8912 16.7848ZM7.75217 17.3215C7.55221 17.4935 7.53863 17.7749 7.72146 17.9579C7.82983 18.0662 7.92421 18.0877 8.35512 18.1018C8.91506 18.1201 9.09534 18.0615 9.23279 17.8167C9.30256 17.6923 9.30476 17.6352 9.24515 17.4913C9.14544 17.2506 8.9651 17.1855 8.39761 17.1855C7.97018 17.1855 7.89078 17.2023 7.75217 17.3215ZM13.9005 17.244C13.642 17.3481 13.5695 17.7157 13.7658 17.9265C13.9119 18.0833 14.1773 18.1336 14.7021 18.104C15.1761 18.0772 15.3332 17.9564 15.3332 17.6187C15.3332 17.2935 15.1293 17.1848 14.5273 17.1892C14.2523 17.1912 13.9702 17.2159 13.9005 17.244ZM18.8026 19.2025L18.7868 20.2909H18.5837H18.3805L18.3647 19.2025L18.3489 18.1142H18.5837H18.8184L18.8026 19.2025ZM9.06447 19.4244C8.8392 19.6419 8.63976 19.8801 8.62125 19.9537C8.56326 20.1849 8.64893 20.3796 8.84489 20.462C9.10846 20.5728 9.28486 20.4897 9.69743 20.06C9.96872 19.7775 10.0513 19.6512 10.0513 19.5187C10.0513 19.2928 9.89425 19.1102 9.66109 19.0652C9.48957 19.0321 9.43989 19.062 9.06447 19.4244ZM13.0444 19.1789C12.7962 19.4271 12.8399 19.6315 13.2292 20.0418C13.4127 20.2353 13.6402 20.4266 13.7346 20.4668C14.0372 20.5959 14.341 20.3965 14.3447 20.0663C14.3461 19.9377 14.2575 19.809 13.9547 19.5005C13.484 19.0208 13.276 18.9473 13.0444 19.1789ZM11.1541 19.9716C11.0529 20.0728 11.0381 20.1651 11.0381 20.6929C11.0381 21.2777 11.0432 21.3023 11.191 21.4185C11.3939 21.5781 11.5921 21.5704 11.7662 21.3963C11.8982 21.2643 11.9087 21.2118 11.9087 20.6817C11.9087 20.1862 11.8929 20.0926 11.7903 19.9826C11.6367 19.8176 11.3138 19.812 11.1541 19.9716ZM3.92515 20.472C4.12795 20.5498 4.18895 20.8084 4.18895 21.5902C4.18895 22.0047 4.16301 22.4121 4.13126 22.4955C4.05081 22.7072 3.73517 22.8336 3.49563 22.7501C3.20042 22.6472 3.14418 22.4592 3.14418 21.5751C3.14418 20.8185 3.14905 20.7874 3.29445 20.6146C3.44507 20.4356 3.6874 20.3808 3.92515 20.472ZM6.60924 28.582C6.59275 28.6249 6.52165 28.8736 6.45125 29.1345L6.32326 29.609L5.04434 29.5934L3.76541 29.5778L3.62982 29.0844C3.55524 28.8131 3.49383 28.5715 3.49336 28.5475C3.49284 28.5235 4.20045 28.504 5.06581 28.504C6.35971 28.504 6.63385 28.5178 6.60924 28.582ZM19.4543 28.5196C19.4543 28.5368 19.236 29.3411 19.1867 29.5052C19.1589 29.5979 19.0455 29.6068 17.8871 29.6068C16.7288 29.6068 16.6154 29.5979 16.5876 29.5052C16.5383 29.3411 16.32 28.5368 16.32 28.5196C16.32 28.5111 17.0252 28.504 17.8871 28.504C18.7491 28.504 19.4543 28.5111 19.4543 28.5196Z" fill="#FF6359"/>
</svg>
