<svg width="35" height="26" viewBox="0 0 35 26" fill="none" xmlns="http://www.w3.org/2000/svg">
<path fill-rule="evenodd" clip-rule="evenodd" d="M4.44367 1.0927C2.57888 3.05256 1.05899 5.93085 0.333986 8.87538C-0.145395 10.8225 -0.102147 14.7785 0.421394 16.8686C0.963549 19.0325 2.14111 21.4606 3.55662 23.3323C5.27013 25.5982 6.20717 26.0283 7.22141 25.0141C8.02305 24.2125 7.94039 23.5997 6.85462 22.2951C4.38272 19.3247 3.20315 16.2674 3.19585 12.8117C3.18855 9.25093 4.43509 5.96224 6.82925 3.22628C7.54167 2.41205 7.7548 2.02957 7.7548 1.56533C7.7548 0.721717 7.00936 0 6.13801 0C5.5756 0 5.3371 0.153832 4.44367 1.0927ZM27.3634 0.447994C26.5485 1.26278 26.6901 1.94562 28.0069 3.54946C29.2815 5.10184 30.0512 6.44454 30.651 8.16151C32.3045 12.8938 31.2446 18.2398 27.8835 22.1214C27.3621 22.7236 26.9072 23.3917 26.8725 23.6063C26.7136 24.5924 27.4944 25.5475 28.4596 25.5475C29.7355 25.5475 32.5695 21.6991 33.7003 18.4307C35.7821 12.4146 34.3496 5.50567 30.0778 0.958031C29.3028 0.133029 29.083 0 28.4946 0C28.0123 0 27.6795 0.131752 27.3634 0.447994ZM10.7508 5.28633C10.1552 5.5272 8.89787 7.06534 8.29824 8.28615C7.69531 9.51407 7.21374 11.507 7.21374 12.7737C7.21374 14.9767 8.38163 17.9272 9.86776 19.4785C10.4822 20.1199 10.7302 20.2555 11.2902 20.2555C12.1796 20.2555 12.8643 19.6026 12.8643 18.7548C12.8643 18.3216 12.6315 17.8398 12.045 17.0584C10.9327 15.5772 10.5833 14.505 10.5891 12.5913C10.5944 10.8451 11.0541 9.56115 12.1008 8.36918C12.4132 8.01316 12.7506 7.50677 12.8508 7.24381C13.1048 6.57574 12.7678 5.71078 12.1236 5.37775C11.5446 5.0783 11.3046 5.06224 10.7508 5.28633ZM22.601 5.29052C22.0771 5.50184 21.6234 6.17958 21.6234 6.75074C21.6234 7.02064 22.0078 7.74308 22.5388 8.47155C23.7101 10.0781 24.064 11.2586 23.9598 13.2133C23.8709 14.8823 23.3463 16.1599 22.2525 17.3705C21.0868 18.6608 21.6329 20.2555 23.2406 20.2555C23.8729 20.2555 24.0609 20.1455 24.7634 19.3641C27.9401 15.8309 28.151 10.4511 25.2629 6.62593C24.2667 5.3064 23.5065 4.92501 22.601 5.29052ZM15.9647 10.4471C15.0245 11.0871 14.6284 11.7407 14.6284 12.6522C14.6284 13.748 15.1556 14.5973 16.1532 15.1084C17.9681 16.0382 19.9811 14.7384 19.9811 12.6363C19.9811 10.6723 17.5671 9.35659 15.9647 10.4471Z" fill="#488B38"/>
</svg>
