<svg width="14" height="20" viewBox="0 0 14 20" fill="none" xmlns="http://www.w3.org/2000/svg">
<path fill-rule="evenodd" clip-rule="evenodd" d="M1.17758 0.943955C0.833771 1.03723 0.578107 1.24268 0.41236 1.55897C0.34979 1.67836 0.331582 1.78696 0.319986 2.11018C0.306475 2.48744 0.311785 2.52657 0.404557 2.73328C0.577384 3.11835 0.937416 3.37564 1.3567 3.41364L1.55947 3.43203L1.56146 4.01489C1.56373 4.67318 1.62533 5.03621 1.84989 5.71433C2.25891 6.94977 3.10173 8.3269 4.21738 9.58282C4.69312 10.1184 4.79276 10.247 4.79276 10.3256C4.79276 10.3633 4.69117 10.5099 4.56697 10.6513C3.44677 11.9273 2.85723 12.7513 2.35009 13.7499C1.77204 14.8882 1.49889 15.9498 1.55366 16.845L1.57623 17.2139L1.36508 17.2331C1.08189 17.2587 0.857325 17.3641 0.65538 17.5661C0.388517 17.8329 0.331185 17.996 0.331185 18.4882C0.331185 18.8696 0.339169 18.9188 0.428545 19.0882C0.556142 19.33 0.843958 19.5858 1.08188 19.6688C1.26125 19.7314 1.55478 19.7346 7.08676 19.7346C13.6715 19.7346 13.1046 19.761 13.464 19.4379C13.7371 19.1923 13.834 18.9772 13.853 18.5747C13.8848 17.9013 13.6042 17.4487 13.0457 17.2727L12.8554 17.2127L12.875 16.8118C12.9571 15.13 11.9824 13.0654 10.088 10.9083C9.83809 10.6237 9.63365 10.3604 9.63365 10.323C9.63365 10.2857 9.72328 10.1527 9.83282 10.0275C11.3448 8.29959 12.1288 7.07134 12.5756 5.73052C12.7979 5.06345 12.8639 4.67188 12.8655 4.00911L12.8669 3.42047L12.9573 3.39883C13.2688 3.32416 13.6168 3.02926 13.7593 2.71919C13.8292 2.56717 13.8423 2.47845 13.8423 2.15924C13.8423 1.81691 13.8325 1.75983 13.7412 1.57389C13.62 1.32714 13.3496 1.07224 13.1106 0.97943C12.9469 0.915884 12.6781 0.912561 7.14095 0.906022C2.62241 0.900675 1.30626 0.909021 1.17758 0.943955ZM11.6348 3.4808C11.6762 3.58878 11.6566 4.17316 11.6009 4.49367C11.3655 5.8458 10.3053 7.61373 8.62996 9.44757C8.22149 9.89466 8.15404 9.98599 8.11639 10.143C8.03977 10.4624 8.10675 10.6296 8.46801 11.0204C10.5487 13.2715 11.6567 15.2679 11.6567 16.7659C11.6567 16.9549 11.6469 17.1352 11.6348 17.1667C11.615 17.2184 11.1916 17.2238 7.21097 17.2238H2.80911L2.78429 17.0916C2.73978 16.8544 2.79661 16.2127 2.89552 15.8355C3.25039 14.4822 4.21228 12.9546 5.84659 11.1489C6.25507 10.6975 6.3465 10.5457 6.34596 10.3195C6.34546 10.0959 6.26378 9.95546 5.90201 9.55638C4.94084 8.49597 4.43793 7.84946 3.87389 6.94916C3.59781 6.50849 3.22543 5.77665 3.08143 5.39187C2.85271 4.78076 2.7146 3.92732 2.78429 3.55591L2.80911 3.42365H7.21097C11.1916 3.42365 11.615 3.4291 11.6348 3.4808ZM5.08177 7.83349C5.08177 8.02557 5.85219 8.83982 6.60914 9.44768C6.92279 9.69958 7.09963 9.81797 7.1622 9.81797C7.45084 9.81797 9.2125 8.163 9.24519 7.86109L9.25433 7.77684L7.16805 7.76752L5.08177 7.7582V7.83349ZM6.99024 10.9832C6.78732 11.1073 6.16728 11.6646 5.77893 12.0719C4.68315 13.2213 3.95474 14.4481 3.70666 15.562C3.66906 15.7309 3.63795 15.9438 3.63752 16.0351C3.63604 16.3456 3.32741 16.3207 7.1709 16.3207C10.5725 16.3207 10.5729 16.3207 10.6484 16.2452C10.7151 16.1785 10.7209 16.1442 10.6985 15.9472C10.5589 14.7153 9.71118 13.2269 8.40681 11.9233C7.73588 11.2528 7.30193 10.9008 7.14764 10.9019C7.13402 10.902 7.06321 10.9386 6.99024 10.9832Z" fill="#63A748"/>
</svg>
