<svg width="15" height="20" viewBox="0 0 15 20" fill="none" xmlns="http://www.w3.org/2000/svg">
<path fill-rule="evenodd" clip-rule="evenodd" d="M1.66782 0.564804C1.32401 0.658082 1.06834 0.863531 0.902594 1.17981C0.840024 1.29921 0.821817 1.40781 0.81022 1.73103C0.796709 2.10829 0.802019 2.14742 0.894791 2.35413C1.06762 2.7392 1.42765 2.99649 1.84693 3.03449L2.04971 3.05288L2.05169 3.63574C2.05397 4.29403 2.11556 4.65706 2.34012 5.33518C2.74914 6.57062 3.59197 7.94775 4.70761 9.20367C5.18336 9.73921 5.28299 9.86785 5.28299 9.94646C5.28299 9.98414 5.18141 10.1307 5.0572 10.2722C3.93701 11.5481 3.34746 12.3721 2.84033 13.3708C2.26227 14.5091 1.98912 15.5706 2.04389 16.4659L2.06647 16.8347L1.85531 16.8539C1.57212 16.8796 1.34756 16.9849 1.14561 17.1869C0.878751 17.4538 0.821419 17.6168 0.821419 18.1091C0.821419 18.4905 0.829403 18.5396 0.918779 18.7091C1.04638 18.9509 1.33419 19.2067 1.57212 19.2897C1.75149 19.3522 2.04501 19.3554 7.577 19.3554C14.1617 19.3554 13.5948 19.3818 13.9542 19.0587C14.2273 18.8131 14.3243 18.5981 14.3433 18.1956C14.3751 17.5222 14.0944 17.0695 13.536 16.8935L13.3456 16.8335L13.3652 16.4327C13.4473 14.7509 12.4727 12.6862 10.5782 10.5291C10.3283 10.2445 10.1239 9.98121 10.1239 9.94386C10.1239 9.90654 10.2135 9.77356 10.3231 9.64839C11.835 7.92044 12.619 6.69219 13.0659 5.35137C13.2881 4.6843 13.3541 4.29273 13.3557 3.62996L13.3572 3.04132L13.4475 3.01968C13.759 2.94501 14.1071 2.65011 14.2496 2.34004C14.3194 2.18802 14.3326 2.0993 14.3326 1.78009C14.3326 1.43776 14.3227 1.38068 14.2314 1.19473C14.1102 0.947993 13.8399 0.693088 13.6008 0.60028C13.4372 0.536734 13.1684 0.533411 7.63119 0.526872C3.11264 0.521525 1.7965 0.52987 1.66782 0.564804ZM12.125 3.10165C12.1665 3.20963 12.1469 3.79401 12.0911 4.11452C11.8558 5.46665 10.7955 7.23458 9.1202 9.06842C8.71172 9.51551 8.64427 9.60684 8.60663 9.76384C8.53001 10.0833 8.59698 10.2504 8.95824 10.6413C11.039 12.8923 12.1469 14.8888 12.1469 16.3868C12.1469 16.5757 12.1371 16.7561 12.125 16.7875C12.1052 16.8392 11.6818 16.8447 7.7012 16.8447H3.29934L3.27453 16.7124C3.23002 16.4752 3.28684 15.8335 3.38576 15.4563C3.74062 14.1031 4.70252 12.5755 6.33683 10.7697C6.7453 10.3184 6.83674 10.1666 6.8362 9.94039C6.83569 9.71673 6.75401 9.57631 6.39224 9.17723C5.43107 8.11682 4.92816 7.47031 4.36412 6.57001C4.08805 6.12934 3.71566 5.3975 3.57166 5.01272C3.34295 4.40161 3.20484 3.54817 3.27453 3.17676L3.29934 3.0445H7.7012C11.6818 3.0445 12.1052 3.04995 12.125 3.10165ZM5.572 7.45434C5.572 7.64642 6.34243 8.46067 7.09938 9.06853C7.41302 9.32043 7.58986 9.43882 7.65243 9.43882C7.94108 9.43882 9.70273 7.78384 9.73542 7.48194L9.74457 7.39769L7.65828 7.38837L5.572 7.37905V7.45434ZM7.48047 10.6041C7.27755 10.7281 6.65752 11.2854 6.26916 11.6928C5.17339 12.8421 4.44497 14.069 4.1969 15.1829C4.15929 15.3518 4.12819 15.5646 4.12775 15.6559C4.12627 15.9665 3.81765 15.9415 7.66114 15.9415C11.0628 15.9415 11.0632 15.9415 11.1386 15.8661C11.2053 15.7994 11.2111 15.765 11.1888 15.568C11.0491 14.3362 10.2014 12.8478 8.89705 11.5442C8.22611 10.8736 7.79217 10.5216 7.63787 10.5228C7.62425 10.5229 7.55345 10.5594 7.48047 10.6041Z" fill="#FF6359"/>
</svg>
