<svg width="30" height="34" viewBox="0 0 30 34" fill="none" xmlns="http://www.w3.org/2000/svg">
<path fill-rule="evenodd" clip-rule="evenodd" d="M25.0339 10.57C25.6363 10.849 26.0121 11.2524 26.203 11.8247C26.3026 12.1227 26.3453 14.3184 26.3453 19.1274L26.3453 26.0038L27.9065 26.0038L29.4678 26.0038L29.4678 29.0753L29.4678 32.1468L14.9171 32.1468L0.366339 32.1468L0.366338 29.0753L0.366338 26.0038L1.92758 26.0038L3.48881 26.0038L3.48881 19.0657L3.48881 12.1276L3.77445 11.575C3.99365 11.1512 4.21697 10.9423 4.73368 10.6778L5.40713 10.333L14.9706 10.3358C24.0016 10.3384 24.5621 10.3514 25.0339 10.57ZM22.2236 11.4663C22.2236 11.8635 22.671 12.6487 23.1074 13.0172C23.6718 13.4939 24.1362 13.7109 24.7819 13.7998L25.3461 13.8774L25.3461 13.0106C25.3461 11.6092 24.8837 11.2241 23.1916 11.2155C22.299 11.211 22.2236 11.2305 22.2236 11.4663ZM8.4072 11.9339C8.18313 12.8128 7.94133 13.2592 7.32608 13.9292C6.69309 14.6183 6.0029 15.0338 5.1095 15.2633L4.42555 15.4389L4.42555 23.3228L4.42555 31.2066L6.39271 31.241C7.48545 31.2602 8.35987 31.226 8.35987 31.1639C8.35987 31.1025 8.25495 30.9178 8.12668 30.7534C7.80407 30.3395 7.19256 29.087 6.90967 28.2604C6.72182 27.7116 6.67535 27.2258 6.68147 25.8785C6.68847 24.3456 6.72182 24.0993 7.03481 23.2658C7.87801 21.0208 9.19257 19.5106 11.1701 18.5153C12.4511 17.8706 13.2701 17.6836 14.8546 17.6749C16.118 17.668 16.4252 17.7111 17.4064 18.0339C20.086 18.9154 22.1963 21.1511 22.9176 23.8726C23.1814 24.8675 23.2132 26.8027 22.9818 27.759C22.7743 28.6156 22.2308 29.8456 21.731 30.5887C21.4595 30.9927 21.3974 31.1703 21.5125 31.2146C21.6008 31.2486 22.4854 31.2607 23.4784 31.2415L25.2837 31.2066L25.2837 23.0612L25.2837 14.9158L24.7436 14.8233C24.0168 14.6988 22.9959 14.2166 22.4611 13.7452C21.9459 13.2912 21.4061 12.3445 21.2833 11.6796L21.1962 11.2083L14.886 11.2408L8.57569 11.2733L8.4072 11.9339ZM5.28998 11.4661C4.62027 11.7915 4.42555 12.2422 4.42555 13.4672C4.42555 14.397 4.42905 14.4069 4.73605 14.3632C5.31258 14.2811 6.20186 13.7333 6.72232 13.1397C7.19319 12.6028 7.65956 11.5368 7.52529 11.3046C7.40401 11.0951 5.81767 11.2097 5.28998 11.4661ZM12.4532 19.012C10.1337 19.8793 8.39896 21.7644 7.80132 24.0672C7.58425 24.904 7.55415 26.7942 7.74462 27.6336C7.94046 28.4966 8.79089 30.1416 9.34894 30.7364L9.84866 31.2692L14.9023 31.2692L19.956 31.2692L20.4694 30.6737C21.5037 29.4741 22.2164 27.519 22.2215 25.8672C22.2243 24.948 21.8405 23.4701 21.3405 22.4755C20.5449 20.893 18.5627 19.3177 16.7126 18.7975C15.666 18.5032 13.5257 18.611 12.4532 19.012ZM18.0526 23.3596C18.7182 23.663 19.0648 24.0362 19.4238 24.8363C19.6911 25.4319 19.7544 25.49 20.1763 25.5258C21.0914 25.6037 21.0264 26.3799 20.1049 26.3799C19.6708 26.3799 19.6305 26.4129 19.49 26.8835C19.1699 27.9559 18.0852 28.7539 16.9404 28.7591C15.9184 28.7638 15.2884 28.2524 14.7431 26.9753L14.4888 26.3799L12.8681 26.3799C11.9766 26.3799 11.2168 26.4295 11.1796 26.4899C11.0238 26.7429 11.6822 27.4469 12.2359 27.6193C13.3408 27.9634 13.3751 27.9865 13.3328 28.3555C13.2985 28.6541 13.2314 28.7044 12.8219 28.7383C11.7896 28.824 10.5898 27.9492 10.2413 26.857C10.1053 26.4306 10.0517 26.3906 9.57014 26.3555C9.08041 26.3198 9.04681 26.2932 9.04681 25.9412C9.04681 25.5891 9.08041 25.5626 9.57014 25.5268C10.0517 25.4917 10.1053 25.4517 10.2413 25.0254C10.6198 23.8394 11.8032 23.0433 13.0355 23.1459C13.9275 23.2201 14.37 23.5685 14.8755 24.5946L15.2918 25.4397L16.9467 25.4747C18.7247 25.5123 18.7604 25.4976 18.3972 24.8806C18.1369 24.4383 17.6073 24.1233 17.1236 24.1233C16.737 24.1233 16.3534 23.8504 16.3534 23.5754C16.3534 23.0849 17.2113 22.9761 18.0526 23.3596ZM11.8944 24.3691C11.4903 24.6163 11.0516 25.2788 11.1959 25.4238C11.2389 25.467 11.9172 25.5024 12.7032 25.5024L14.1323 25.5024L14.0474 25.1576C14.0007 24.9679 13.8155 24.6578 13.6358 24.4681C13.233 24.0431 12.4954 24.0011 11.8944 24.3691ZM15.604 26.4466C15.604 26.6588 15.9829 27.3548 16.2078 27.5559C16.4185 27.7442 16.6022 27.7789 17.1228 27.7288C17.672 27.6757 17.8392 27.5947 18.1879 27.2128C18.8925 26.4411 18.8128 26.3799 17.1028 26.3799C16.2785 26.3799 15.604 26.4099 15.604 26.4466ZM26.3453 29.143L26.3453 31.2794L27.3757 31.2429L28.4061 31.2066L28.4404 29.1067L28.4746 27.0068L27.4099 27.0068L26.3453 27.0068L26.3453 29.143ZM1.26886 29.1067L1.30308 31.2066L2.36472 31.2066L3.42636 31.2066L3.46058 29.1067L3.49481 27.0068L2.36472 27.0068L1.23463 27.0068L1.26886 29.1067Z" fill="#FF8759"/>
<path fill-rule="evenodd" clip-rule="evenodd" d="M12.4905 8.19795C12.3361 8.04287 12.2943 7.70914 12.2943 6.63086L12.2943 5.26073L11.445 5.26073C10.5767 5.26073 10.2959 5.13587 10.2959 4.74974C10.2959 4.48258 14.6425 0.120699 14.9087 0.120699C15.1638 0.120699 19.5384 4.51079 19.5384 4.76679C19.5384 5.13411 19.2465 5.26073 18.4001 5.26073L17.5615 5.26073L17.5195 6.70721C17.4872 7.8231 17.4347 8.1809 17.2902 8.27241C17.1872 8.3376 16.1093 8.39189 14.8948 8.39302C13.0523 8.39452 12.6544 8.3623 12.4905 8.19795ZM16.5408 5.96554C16.5408 4.3789 16.5767 4.30042 17.331 4.23586L17.8056 4.19512L16.4042 2.78474C15.6335 2.00897 14.9558 1.37437 14.8982 1.37437C14.8406 1.37437 14.1609 2.00897 13.3878 2.78474L11.982 4.19512L12.48 4.23586C13.2599 4.29954 13.2935 4.371 13.2935 5.96554L13.2935 7.39196L14.9172 7.39196L16.5408 7.39196L16.5408 5.96554Z" fill="#FF8759"/>
</svg>
