<svg width="30" height="34" viewBox="0 0 30 34" fill="none" xmlns="http://www.w3.org/2000/svg">
<path fill-rule="evenodd" clip-rule="evenodd" d="M25.3005 10.7662C25.9029 11.0453 26.2787 11.4487 26.4696 12.021C26.5692 12.319 26.6119 14.5147 26.6119 19.3236L26.6119 26.2001L28.1731 26.2001L29.7344 26.2001L29.7344 29.2716L29.7344 32.3431L15.1837 32.3431L0.63294 32.3431L0.63294 29.2716L0.63294 26.2001L2.19418 26.2001L3.75541 26.2001L3.75541 19.262L3.75541 12.3239L4.04105 11.7713C4.26025 11.3474 4.48357 11.1386 5.00028 10.8741L5.67373 10.5293L15.2372 10.5321C24.2682 10.5347 24.8287 10.5477 25.3005 10.7662ZM22.4902 11.6626C22.4902 12.0598 22.9376 12.8449 23.374 13.2135C23.9384 13.6902 24.4028 13.9072 25.0485 13.9961L25.6127 14.0737L25.6127 13.2069C25.6127 11.8055 25.1503 11.4204 23.4582 11.4118C22.5656 11.4072 22.4902 11.4268 22.4902 11.6626ZM8.6738 12.1302C8.44973 13.0091 8.20793 13.4555 7.59268 14.1254C6.95969 14.8146 6.2695 15.23 5.3761 15.4596L4.69215 15.6352L4.69215 23.519L4.69215 31.4028L6.65931 31.4373C7.75205 31.4565 8.62647 31.4223 8.62647 31.3602C8.62647 31.2988 8.52155 31.1141 8.39328 30.9496C8.07067 30.5358 7.45917 29.2833 7.17627 28.4567C6.98842 27.9079 6.94196 27.4221 6.94808 26.0748C6.95507 24.5419 6.98842 24.2956 7.30142 23.4621C8.14461 21.2171 9.45917 19.7069 11.4367 18.7116C12.7177 18.0668 13.5367 17.8799 15.1212 17.8711C16.3846 17.8643 16.6918 17.9074 17.673 18.2302C20.3526 19.1116 22.4629 21.3474 23.1842 24.0689C23.448 25.0638 23.4798 26.999 23.2484 27.9553C23.0409 28.8119 22.4974 30.0419 21.9976 30.785C21.7261 31.189 21.664 31.3666 21.7791 31.4109C21.8674 31.4448 22.752 31.457 23.745 31.4378L25.5503 31.4028L25.5503 23.2575L25.5503 15.1121L25.0102 15.0196C24.2834 14.8951 23.2625 14.4129 22.7277 13.9415C22.2125 13.4874 21.6727 12.5408 21.5499 11.8759L21.4628 11.4046L15.1526 11.4371L8.84229 11.4695L8.6738 12.1302ZM5.55658 11.6624C4.88687 11.9878 4.69215 12.4385 4.69215 13.6635C4.69215 14.5933 4.69565 14.6032 5.00265 14.5595C5.57918 14.4773 6.46847 13.9296 6.98892 13.336C7.45979 12.7991 7.92616 11.7331 7.79189 11.5009C7.67061 11.2914 6.08428 11.406 5.55658 11.6624ZM12.7198 19.2083C10.4003 20.0756 8.66556 21.9607 8.06792 24.2635C7.85085 25.1003 7.82075 26.9904 8.01122 27.8299C8.20706 28.6929 9.05749 30.3379 9.61554 30.9327L10.1153 31.4655L15.1689 31.4655L20.2226 31.4655L20.736 30.87C21.7703 29.6704 22.483 27.7153 22.4881 26.0635C22.4909 25.1443 22.1071 23.6663 21.6071 22.6718C20.8115 21.0893 18.8293 19.5139 16.9792 18.9938C15.9326 18.6994 13.7923 18.8073 12.7198 19.2083ZM18.3192 23.5559C18.9848 23.8593 19.3314 24.2325 19.6904 25.0326C19.9577 25.6282 20.021 25.6863 20.4429 25.7221C21.358 25.8 21.293 26.5762 20.3715 26.5762C19.9374 26.5762 19.8971 26.6092 19.7566 27.0798C19.4365 28.1522 18.3518 28.9502 17.207 28.9554C16.185 28.9601 15.555 28.4487 15.0097 27.1716L14.7554 26.5762L13.1347 26.5762C12.2432 26.5762 11.4834 26.6257 11.4462 26.6862C11.2904 26.9392 11.9488 27.6432 12.5025 27.8156C13.6074 28.1597 13.6417 28.1828 13.5994 28.5518C13.5651 28.8504 13.498 28.9007 13.0885 28.9346C12.0562 29.0203 10.8564 28.1454 10.5079 27.0532C10.3719 26.6269 10.3183 26.5869 9.83674 26.5518C9.34701 26.5161 9.31341 26.4895 9.31341 26.1374C9.31341 25.7854 9.34701 25.7588 9.83674 25.7231C10.3183 25.688 10.3719 25.648 10.5079 25.2216C10.8864 24.0357 12.0698 23.2396 13.3021 23.3421C14.1941 23.4164 14.6366 23.7648 15.1421 24.7909L15.5584 25.636L17.2133 25.671C18.9913 25.7086 19.027 25.6939 18.6638 25.0768C18.4036 24.6346 17.8739 24.3196 17.3902 24.3196C17.0036 24.3196 16.62 24.0467 16.62 23.7717C16.62 23.2812 17.4779 23.1724 18.3192 23.5559ZM12.161 24.5653C11.7569 24.8126 11.3182 25.4751 11.4625 25.6201C11.5055 25.6633 12.1838 25.6987 12.9698 25.6987L14.3989 25.6987L14.314 25.3539C14.2673 25.1642 14.0821 24.8541 13.9024 24.6644C13.4996 24.2394 12.762 24.1974 12.161 24.5653ZM15.8706 26.6429C15.8706 26.855 16.2495 27.5511 16.4744 27.7522C16.6851 27.9405 16.8688 27.9752 17.3894 27.925C17.9386 27.872 18.1058 27.791 18.4545 27.409C19.1591 26.6374 19.0794 26.5762 17.3694 26.5762C16.5451 26.5762 15.8706 26.6062 15.8706 26.6429ZM26.6119 29.3393L26.6119 31.4757L27.6423 31.4392L28.6727 31.4028L28.707 29.303L28.7412 27.2031L27.6765 27.2031L26.6119 27.2031L26.6119 29.3393ZM1.53546 29.303L1.56968 31.4028L2.63132 31.4028L3.69296 31.4028L3.72719 29.303L3.76141 27.2031L2.63132 27.2031L1.50124 27.2031L1.53546 29.303Z" fill="#63A748"/>
<path fill-rule="evenodd" clip-rule="evenodd" d="M12.7571 8.39423C12.6027 8.23916 12.5609 7.90543 12.5609 6.82715L12.5609 5.45702L11.7116 5.45702C10.8433 5.45702 10.5625 5.33215 10.5625 4.94602C10.5625 4.67887 14.9091 0.316988 15.1753 0.316988C15.4304 0.316988 19.805 4.70708 19.805 4.96308C19.805 5.3304 19.5131 5.45702 18.6667 5.45702L17.8281 5.45702L17.7862 6.9035C17.7538 8.01939 17.7013 8.37719 17.5568 8.4687C17.4538 8.53389 16.3759 8.58818 15.1614 8.58931C13.3189 8.59081 12.921 8.55859 12.7571 8.39423ZM16.8074 6.16183C16.8074 4.57519 16.8433 4.49671 17.5976 4.43215L18.0722 4.3914L16.6708 2.98103C15.9001 2.20526 15.2224 1.57065 15.1648 1.57065C15.1072 1.57065 14.4275 2.20526 13.6544 2.98103L12.2486 4.3914L12.7466 4.43215C13.5265 4.49583 13.5601 4.56729 13.5601 6.16183L13.5601 7.58825L15.1838 7.58825L16.8074 7.58825L16.8074 6.16183Z" fill="#63A748"/>
</svg>
