<svg width="30" height="35" viewBox="0 0 30 35" fill="none" xmlns="http://www.w3.org/2000/svg">
<path fill-rule="evenodd" clip-rule="evenodd" d="M24.6674 11.3463C25.2698 11.6254 25.6456 12.0288 25.8366 12.6011C25.9361 12.8991 25.9788 15.0948 25.9788 19.9037L25.9788 26.7802L27.5401 26.7802L29.1013 26.7802L29.1013 29.8517L29.1013 32.9232L14.5506 32.9232L-0.000116349 32.9232L-0.000116617 29.8517L-0.000116886 26.7802L1.56112 26.7802L3.12236 26.7802L3.12236 19.842L3.12235 12.904L3.408 12.3514C3.6272 11.9275 3.85051 11.7187 4.36722 11.4541L5.04068 11.1094L14.6042 11.1121C23.6351 11.1148 24.1957 11.1278 24.6674 11.3463ZM21.8572 12.2427C21.8572 12.6399 22.3046 13.425 22.741 13.7936C23.3054 14.2702 23.7698 14.4873 24.4155 14.5761L24.9797 14.6537L24.9797 13.787C24.9797 12.3856 24.5173 12.0005 22.8252 11.9918C21.9325 11.9873 21.8572 12.0069 21.8572 12.2427ZM8.04074 12.7103C7.81668 13.5891 7.57488 14.0356 6.95962 14.7055C6.32664 15.3947 5.63644 15.8101 4.74304 16.0397L4.0591 16.2153L4.0591 24.0991L4.0591 31.9829L6.02625 32.0174C7.11899 32.0366 7.99341 32.0024 7.99341 31.9403C7.99341 31.8789 7.8885 31.6942 7.76023 31.5297C7.43761 31.1159 6.82611 29.8634 6.54321 29.0368C6.35537 28.488 6.3089 28.0022 6.31502 26.6548C6.32201 25.122 6.35536 24.8756 6.66836 24.0422C7.51155 21.7971 8.82611 20.287 10.8036 19.2917C12.0846 18.6469 12.9037 18.46 14.4882 18.4512C15.7515 18.4443 16.0588 18.4875 17.04 18.8103C19.7195 19.6917 21.8298 21.9275 22.5511 24.649C22.8149 25.6439 22.8468 27.579 22.6153 28.5353C22.4079 29.392 21.8643 30.6219 21.3646 31.3651C21.0931 31.769 21.031 31.9467 21.146 31.9909C21.2343 32.0249 22.119 32.0371 23.1119 32.0179L24.9172 31.9829L24.9172 23.8376L24.9172 15.6922L24.3771 15.5996C23.6504 15.4751 22.6294 14.993 22.0946 14.5216C21.5794 14.0675 21.0396 13.1209 20.9168 12.4559L20.8298 11.9847L14.5195 12.0172L8.20923 12.0496L8.04074 12.7103ZM4.92352 12.2424C4.25381 12.5679 4.0591 13.0186 4.0591 14.2435C4.0591 15.1734 4.06259 15.1833 4.36959 15.1395C4.94613 15.0574 5.83541 14.5097 6.35586 13.9161C6.82673 13.3791 7.2931 12.3131 7.15883 12.081C7.03756 11.8715 5.45122 11.9861 4.92352 12.2424ZM12.0867 19.7884C9.76722 20.6557 8.03251 22.5408 7.43487 24.8435C7.21779 25.6804 7.18769 27.5705 7.37816 28.41C7.574 29.273 8.42444 30.9179 8.98249 31.5128L9.48221 32.0456L14.5359 32.0456L19.5895 32.0456L20.103 31.4501C21.1373 30.2505 21.8499 28.2954 21.8551 26.6436C21.8578 25.7244 21.474 24.2464 20.974 23.2519C20.1784 21.6694 18.1963 20.094 16.3461 19.5739C15.2995 19.2795 13.1592 19.3873 12.0867 19.7884ZM17.6862 24.136C18.3518 24.4394 18.6984 24.8126 19.0573 25.6127C19.3246 26.2083 19.3879 26.2663 19.8098 26.3022C20.725 26.38 20.6599 27.1563 19.7384 27.1563C19.3044 27.1563 19.264 27.1893 19.1235 27.6599C18.8034 28.7323 17.7188 29.5302 16.574 29.5355C15.5519 29.5402 14.9219 29.0288 14.3766 27.7517L14.1223 27.1563L12.5016 27.1563C11.6101 27.1563 10.8503 27.2058 10.8131 27.2663C10.6574 27.5192 11.3157 28.2233 11.8694 28.3957C12.9744 28.7398 13.0086 28.7629 12.9664 29.1318C12.932 29.4305 12.865 29.4807 12.4554 29.5147C11.4231 29.6003 10.2234 28.7255 9.87489 27.6333C9.73887 27.207 9.68529 27.167 9.20368 27.1319C8.71395 27.0961 8.68036 27.0696 8.68036 26.7175C8.68036 26.3655 8.71395 26.3389 9.20368 26.3032C9.68529 26.2681 9.73887 26.2281 9.87489 25.8017C10.2533 24.6158 11.4367 23.8197 12.669 23.9222C13.561 23.9964 14.0035 24.3448 14.509 25.371L14.9253 26.2161L16.5802 26.251C18.3583 26.2886 18.394 26.274 18.0308 25.6569C17.7705 25.2146 17.2408 24.8997 16.7572 24.8997C16.3705 24.8997 15.9869 24.6268 15.9869 24.3517C15.9869 23.8613 16.8449 23.7525 17.6862 24.136ZM11.5279 25.1454C11.1239 25.3927 10.6851 26.0552 10.8295 26.2001C10.8725 26.2434 11.5508 26.2787 12.3368 26.2787L13.7659 26.2787L13.6809 25.934C13.6342 25.7443 13.449 25.4341 13.2694 25.2445C12.8666 24.8195 12.1289 24.7775 11.5279 25.1454ZM15.2375 27.223C15.2375 27.4351 15.6165 28.1312 15.8413 28.3322C16.052 28.5205 16.2357 28.5553 16.7563 28.5051C17.3055 28.4521 17.4727 28.3711 17.8215 27.9891C18.526 27.2175 18.4463 27.1563 16.7363 27.1563C15.912 27.1563 15.2375 27.1863 15.2375 27.223ZM25.9788 29.9194L25.9788 32.0558L27.0093 32.0193L28.0397 31.9829L28.0739 29.883L28.1081 27.7831L27.0435 27.7831L25.9788 27.7831L25.9788 29.9194ZM0.902403 29.883L0.936624 31.9829L1.99827 31.9829L3.05991 31.9829L3.09413 29.883L3.12835 27.7831L1.99827 27.7831L0.868179 27.7831L0.902403 29.883Z" fill="#914DE5"/>
<path fill-rule="evenodd" clip-rule="evenodd" d="M12.124 8.97431C11.9697 8.81923 11.9278 8.48551 11.9278 7.40723L11.9278 6.0371L11.0785 6.0371C10.2102 6.0371 9.92944 5.91223 9.92944 5.5261C9.92944 5.25895 14.276 0.897066 14.5422 0.897066C14.7974 0.897066 19.172 5.28715 19.172 5.54315C19.172 5.91048 18.8801 6.0371 18.0336 6.0371L17.1951 6.0371L17.1531 7.48358C17.1207 8.59947 17.0683 8.95726 16.9238 9.04878C16.8207 9.11397 15.7429 9.16826 14.5283 9.16938C12.6858 9.17089 12.2879 9.13867 12.124 8.97431ZM16.1744 6.74191C16.1744 5.15527 16.2102 5.07679 16.9645 5.01223L17.4391 4.97148L16.0377 3.56111C15.267 2.78534 14.5893 2.15073 14.5317 2.15073C14.4741 2.15073 13.7944 2.78534 13.0213 3.56111L11.6156 4.97148L12.1136 5.01223C12.8934 5.07591 12.927 5.14737 12.927 6.74191L12.927 8.16833L14.5507 8.16833L16.1744 8.16833L16.1744 6.74191Z" fill="#914DE5"/>
</svg>
